<svg width="150" height="42" viewBox="0 0 214 42" fill="none" xmlns="http://www.w3.org/2000/svg">
<rect width="210" height="42" rx="12" fill="#FEFEFE"/>
<path d="M25.4375 16.4688V25H23.9668V16.4688H25.4375ZM28.5254 20.0137V25H27.1133V18.6602H28.4434L28.5254 20.0137ZM28.2734 21.5957L27.8164 21.5898C27.8203 21.1406 27.8828 20.7285 28.0039 20.3535C28.1289 19.9785 28.3008 19.6562 28.5195 19.3867C28.7422 19.1172 29.0078 18.9102 29.3164 18.7656C29.625 18.6172 29.9688 18.543 30.3477 18.543C30.6523 18.543 30.9277 18.5859 31.1738 18.6719C31.4238 18.7539 31.6367 18.8887 31.8125 19.0762C31.9922 19.2637 32.1289 19.5078 32.2227 19.8086C32.3164 20.1055 32.3633 20.4707 32.3633 20.9043V25H30.9453V20.8984C30.9453 20.5938 30.9004 20.3535 30.8105 20.1777C30.7246 19.998 30.5977 19.8711 30.4297 19.7969C30.2656 19.7188 30.0605 19.6797 29.8145 19.6797C29.5723 19.6797 29.3555 19.7305 29.1641 19.832C28.9727 19.9336 28.8105 20.0723 28.6777 20.248C28.5488 20.4238 28.4492 20.627 28.3789 20.8574C28.3086 21.0879 28.2734 21.334 28.2734 21.5957ZM37.3613 23.2832C37.3613 23.1426 37.3262 23.0156 37.2559 22.9023C37.1855 22.7852 37.0508 22.6797 36.8516 22.5859C36.6562 22.4922 36.3672 22.4062 35.9844 22.3281C35.6484 22.2539 35.3398 22.166 35.0586 22.0645C34.7812 21.959 34.543 21.832 34.3438 21.6836C34.1445 21.5352 33.9902 21.3594 33.8809 21.1562C33.7715 20.9531 33.7168 20.7188 33.7168 20.4531C33.7168 20.1953 33.7734 19.9512 33.8867 19.7207C34 19.4902 34.1621 19.2871 34.373 19.1113C34.584 18.9355 34.8398 18.7969 35.1406 18.6953C35.4453 18.5938 35.7852 18.543 36.1602 18.543C36.6914 18.543 37.1465 18.6328 37.5254 18.8125C37.9082 18.9883 38.2012 19.2285 38.4043 19.5332C38.6074 19.834 38.709 20.1738 38.709 20.5527H37.2969C37.2969 20.3848 37.2539 20.2285 37.168 20.084C37.0859 19.9355 36.9609 19.8164 36.793 19.7266C36.625 19.6328 36.4141 19.5859 36.1602 19.5859C35.918 19.5859 35.7168 19.625 35.5566 19.7031C35.4004 19.7773 35.2832 19.875 35.2051 19.9961C35.1309 20.1172 35.0938 20.25 35.0938 20.3945C35.0938 20.5 35.1133 20.5957 35.1523 20.6816C35.1953 20.7637 35.2656 20.8398 35.3633 20.9102C35.4609 20.9766 35.5938 21.0391 35.7617 21.0977C35.9336 21.1562 36.1484 21.2129 36.4062 21.2676C36.8906 21.3691 37.3066 21.5 37.6543 21.6602C38.0059 21.8164 38.2754 22.0195 38.4629 22.2695C38.6504 22.5156 38.7441 22.8281 38.7441 23.207C38.7441 23.4883 38.6836 23.7461 38.5625 23.9805C38.4453 24.2109 38.2734 24.4121 38.0469 24.584C37.8203 24.752 37.5488 24.8828 37.2324 24.9766C36.9199 25.0703 36.5684 25.1172 36.1777 25.1172C35.6035 25.1172 35.1172 25.0156 34.7188 24.8125C34.3203 24.6055 34.0176 24.3418 33.8105 24.0215C33.6074 23.6973 33.5059 23.3613 33.5059 23.0137H34.8711C34.8867 23.2754 34.959 23.4844 35.0879 23.6406C35.2207 23.793 35.3848 23.9043 35.5801 23.9746C35.7793 24.041 35.9844 24.0742 36.1953 24.0742C36.4492 24.0742 36.6621 24.041 36.834 23.9746C37.0059 23.9043 37.1367 23.8105 37.2266 23.6934C37.3164 23.5723 37.3613 23.4355 37.3613 23.2832ZM42.5703 23.9922C42.8008 23.9922 43.0078 23.9473 43.1914 23.8574C43.3789 23.7637 43.5293 23.6348 43.6426 23.4707C43.7598 23.3066 43.8242 23.1172 43.8359 22.9023H45.166C45.1582 23.3125 45.0371 23.6855 44.8027 24.0215C44.5684 24.3574 44.2578 24.625 43.8711 24.8242C43.4844 25.0195 43.0566 25.1172 42.5879 25.1172C42.1035 25.1172 41.6816 25.0352 41.3223 24.8711C40.9629 24.7031 40.6641 24.4727 40.4258 24.1797C40.1875 23.8867 40.0078 23.5488 39.8867 23.166C39.7695 22.7832 39.7109 22.373 39.7109 21.9355V21.7305C39.7109 21.293 39.7695 20.8828 39.8867 20.5C40.0078 20.1133 40.1875 19.7734 40.4258 19.4805C40.6641 19.1875 40.9629 18.959 41.3223 18.7949C41.6816 18.627 42.1016 18.543 42.582 18.543C43.0898 18.543 43.5352 18.6445 43.918 18.8477C44.3008 19.0469 44.6016 19.3262 44.8203 19.6855C45.043 20.041 45.1582 20.4551 45.166 20.9277H43.8359C43.8242 20.6934 43.7656 20.4824 43.6602 20.2949C43.5586 20.1035 43.4141 19.9512 43.2266 19.8379C43.043 19.7246 42.8223 19.668 42.5645 19.668C42.2793 19.668 42.043 19.7266 41.8555 19.8438C41.668 19.957 41.5215 20.1133 41.416 20.3125C41.3105 20.5078 41.2344 20.7285 41.1875 20.9746C41.1445 21.2168 41.123 21.4688 41.123 21.7305V21.9355C41.123 22.1973 41.1445 22.4512 41.1875 22.6973C41.2305 22.9434 41.3047 23.1641 41.4102 23.3594C41.5195 23.5508 41.668 23.7051 41.8555 23.8223C42.043 23.9355 42.2812 23.9922 42.5703 23.9922ZM47.668 19.8672V25H46.2559V18.6602H47.6035L47.668 19.8672ZM49.6074 18.6191L49.5957 19.9316C49.5098 19.916 49.416 19.9043 49.3145 19.8965C49.2168 19.8887 49.1191 19.8848 49.0215 19.8848C48.7793 19.8848 48.5664 19.9199 48.3828 19.9902C48.1992 20.0566 48.0449 20.1543 47.9199 20.2832C47.7988 20.4082 47.7051 20.5605 47.6387 20.7402C47.5723 20.9199 47.5332 21.1211 47.5215 21.3438L47.1992 21.3672C47.1992 20.9688 47.2383 20.5996 47.3164 20.2598C47.3945 19.9199 47.5117 19.6211 47.668 19.3633C47.8281 19.1055 48.0273 18.9043 48.2656 18.7598C48.5078 18.6152 48.7871 18.543 49.1035 18.543C49.1895 18.543 49.2812 18.5508 49.3789 18.5664C49.4805 18.582 49.5566 18.5996 49.6074 18.6191ZM52.0039 18.6602V25H50.5859V18.6602H52.0039ZM50.4922 16.9961C50.4922 16.7812 50.5625 16.6035 50.7031 16.4629C50.8477 16.3184 51.0469 16.2461 51.3008 16.2461C51.5508 16.2461 51.748 16.3184 51.8926 16.4629C52.0371 16.6035 52.1094 16.7812 52.1094 16.9961C52.1094 17.207 52.0371 17.3828 51.8926 17.5234C51.748 17.6641 51.5508 17.7344 51.3008 17.7344C51.0469 17.7344 50.8477 17.6641 50.7031 17.5234C50.5625 17.3828 50.4922 17.207 50.4922 16.9961ZM56.1406 23.9922C56.3711 23.9922 56.5781 23.9473 56.7617 23.8574C56.9492 23.7637 57.0996 23.6348 57.2129 23.4707C57.3301 23.3066 57.3945 23.1172 57.4062 22.9023H58.7363C58.7285 23.3125 58.6074 23.6855 58.373 24.0215C58.1387 24.3574 57.8281 24.625 57.4414 24.8242C57.0547 25.0195 56.627 25.1172 56.1582 25.1172C55.6738 25.1172 55.252 25.0352 54.8926 24.8711C54.5332 24.7031 54.2344 24.4727 53.9961 24.1797C53.7578 23.8867 53.5781 23.5488 53.457 23.166C53.3398 22.7832 53.2812 22.373 53.2812 21.9355V21.7305C53.2812 21.293 53.3398 20.8828 53.457 20.5C53.5781 20.1133 53.7578 19.7734 53.9961 19.4805C54.2344 19.1875 54.5332 18.959 54.8926 18.7949C55.252 18.627 55.6719 18.543 56.1523 18.543C56.6602 18.543 57.1055 18.6445 57.4883 18.8477C57.8711 19.0469 58.1719 19.3262 58.3906 19.6855C58.6133 20.041 58.7285 20.4551 58.7363 20.9277H57.4062C57.3945 20.6934 57.3359 20.4824 57.2305 20.2949C57.1289 20.1035 56.9844 19.9512 56.7969 19.8379C56.6133 19.7246 56.3926 19.668 56.1348 19.668C55.8496 19.668 55.6133 19.7266 55.4258 19.8438C55.2383 19.957 55.0918 20.1133 54.9863 20.3125C54.8809 20.5078 54.8047 20.7285 54.7578 20.9746C54.7148 21.2168 54.6934 21.4688 54.6934 21.7305V21.9355C54.6934 22.1973 54.7148 22.4512 54.7578 22.6973C54.8008 22.9434 54.875 23.1641 54.9805 23.3594C55.0898 23.5508 55.2383 23.7051 55.4258 23.8223C55.6133 23.9355 55.8516 23.9922 56.1406 23.9922ZM55.5195 25.0117H56.5684L56.498 25.3398C56.7207 25.3789 56.9238 25.4727 57.1074 25.6211C57.2949 25.7734 57.3887 26.0176 57.3887 26.3535C57.3887 26.5527 57.3477 26.7324 57.2656 26.8926C57.1836 27.0527 57.0605 27.1895 56.8965 27.3027C56.7363 27.4199 56.5352 27.5098 56.293 27.5723C56.0547 27.6348 55.7773 27.666 55.4609 27.666L55.4199 26.8691C55.5723 26.8691 55.709 26.8496 55.8301 26.8105C55.9512 26.7754 56.0469 26.7188 56.1172 26.6406C56.1914 26.5625 56.2285 26.4609 56.2285 26.3359C56.2285 26.2148 56.1973 26.1211 56.1348 26.0547C56.0723 25.9883 55.9746 25.9375 55.8418 25.9023C55.7129 25.8672 55.5449 25.8418 55.3379 25.8262L55.5195 25.0117ZM59.5508 21.9004V21.7656C59.5508 21.3086 59.6172 20.8848 59.75 20.4941C59.8828 20.0996 60.0742 19.7578 60.3242 19.4688C60.5781 19.1758 60.8867 18.9492 61.25 18.7891C61.6172 18.625 62.0312 18.543 62.4922 18.543C62.957 18.543 63.3711 18.625 63.7344 18.7891C64.1016 18.9492 64.4121 19.1758 64.666 19.4688C64.9199 19.7578 65.1133 20.0996 65.2461 20.4941C65.3789 20.8848 65.4453 21.3086 65.4453 21.7656V21.9004C65.4453 22.3574 65.3789 22.7812 65.2461 23.1719C65.1133 23.5625 64.9199 23.9043 64.666 24.1973C64.4121 24.4863 64.1035 24.7129 63.7402 24.877C63.377 25.0371 62.9648 25.1172 62.5039 25.1172C62.0391 25.1172 61.623 25.0371 61.2559 24.877C60.8926 24.7129 60.584 24.4863 60.3301 24.1973C60.0762 23.9043 59.8828 23.5625 59.75 23.1719C59.6172 22.7812 59.5508 22.3574 59.5508 21.9004ZM60.9629 21.7656V21.9004C60.9629 22.1855 60.9922 22.4551 61.0508 22.709C61.1094 22.9629 61.2012 23.1855 61.3262 23.377C61.4512 23.5684 61.6113 23.7188 61.8066 23.8281C62.002 23.9375 62.2344 23.9922 62.5039 23.9922C62.7656 23.9922 62.9922 23.9375 63.1836 23.8281C63.3789 23.7188 63.5391 23.5684 63.6641 23.377C63.7891 23.1855 63.8809 22.9629 63.9395 22.709C64.002 22.4551 64.0332 22.1855 64.0332 21.9004V21.7656C64.0332 21.4844 64.002 21.2188 63.9395 20.9688C63.8809 20.7148 63.7871 20.4902 63.6582 20.2949C63.5332 20.0996 63.373 19.9473 63.1777 19.8379C62.9863 19.7246 62.7578 19.668 62.4922 19.668C62.2266 19.668 61.9961 19.7246 61.8008 19.8379C61.6094 19.9473 61.4512 20.0996 61.3262 20.2949C61.2012 20.4902 61.1094 20.7148 61.0508 20.9688C60.9922 21.2188 60.9629 21.4844 60.9629 21.7656ZM63.752 16.0703L64.6133 16.1348C64.6133 16.4199 64.5566 16.6758 64.4434 16.9023C64.3301 17.125 64.1758 17.3008 63.9805 17.4297C63.7852 17.5586 63.5645 17.623 63.3184 17.623C63.127 17.623 62.9648 17.5957 62.832 17.541C62.6992 17.4863 62.5781 17.4238 62.4688 17.3535C62.3594 17.2832 62.2461 17.2227 62.1289 17.1719C62.0156 17.1172 61.8809 17.0898 61.7246 17.0898C61.5762 17.0898 61.4492 17.1445 61.3438 17.2539C61.2422 17.3633 61.1914 17.5098 61.1914 17.6934L60.3242 17.6465C60.3242 17.3652 60.3809 17.1113 60.4941 16.8848C60.6074 16.6582 60.7617 16.4785 60.957 16.3457C61.1523 16.2129 61.373 16.1465 61.6191 16.1465C61.7793 16.1465 61.9238 16.1738 62.0527 16.2285C62.1855 16.2793 62.3105 16.3398 62.4277 16.4102C62.5488 16.4805 62.6719 16.543 62.7969 16.5977C62.9219 16.6523 63.0605 16.6797 63.2129 16.6797C63.3613 16.6797 63.4883 16.623 63.5938 16.5098C63.6992 16.3965 63.752 16.25 63.752 16.0703ZM69.4238 25.1172C68.9551 25.1172 68.5312 25.041 68.1523 24.8887C67.7773 24.7324 67.457 24.5156 67.1914 24.2383C66.9297 23.9609 66.7285 23.6348 66.5879 23.2598C66.4473 22.8848 66.377 22.4805 66.377 22.0469V21.8125C66.377 21.3164 66.4492 20.8672 66.5938 20.4648C66.7383 20.0625 66.9395 19.7188 67.1973 19.4336C67.4551 19.1445 67.7598 18.9238 68.1113 18.7715C68.4629 18.6191 68.8438 18.543 69.2539 18.543C69.707 18.543 70.1035 18.6191 70.4434 18.7715C70.7832 18.9238 71.0645 19.1387 71.2871 19.416C71.5137 19.6895 71.6816 20.0156 71.791 20.3945C71.9043 20.7734 71.9609 21.1914 71.9609 21.6484V22.252H67.0625V21.2383H70.5664V21.127C70.5586 20.873 70.5078 20.6348 70.4141 20.4121C70.3242 20.1895 70.1855 20.0098 69.998 19.873C69.8105 19.7363 69.5605 19.668 69.248 19.668C69.0137 19.668 68.8047 19.7188 68.6211 19.8203C68.4414 19.918 68.291 20.0605 68.1699 20.248C68.0488 20.4355 67.9551 20.6621 67.8887 20.9277C67.8262 21.1895 67.7949 21.4844 67.7949 21.8125V22.0469C67.7949 22.3242 67.832 22.582 67.9062 22.8203C67.9844 23.0547 68.0977 23.2598 68.2461 23.4355C68.3945 23.6113 68.5742 23.75 68.7852 23.8516C68.9961 23.9492 69.2363 23.998 69.5059 23.998C69.8457 23.998 70.1484 23.9297 70.4141 23.793C70.6797 23.6562 70.9102 23.4629 71.1055 23.2129L71.8496 23.9336C71.7129 24.1328 71.5352 24.3242 71.3164 24.5078C71.0977 24.6875 70.8301 24.834 70.5137 24.9473C70.2012 25.0605 69.8379 25.1172 69.4238 25.1172ZM76.6191 23.2832C76.6191 23.1426 76.584 23.0156 76.5137 22.9023C76.4434 22.7852 76.3086 22.6797 76.1094 22.5859C75.9141 22.4922 75.625 22.4062 75.2422 22.3281C74.9062 22.2539 74.5977 22.166 74.3164 22.0645C74.0391 21.959 73.8008 21.832 73.6016 21.6836C73.4023 21.5352 73.248 21.3594 73.1387 21.1562C73.0293 20.9531 72.9746 20.7188 72.9746 20.4531C72.9746 20.1953 73.0312 19.9512 73.1445 19.7207C73.2578 19.4902 73.4199 19.2871 73.6309 19.1113C73.8418 18.9355 74.0977 18.7969 74.3984 18.6953C74.7031 18.5938 75.043 18.543 75.418 18.543C75.9492 18.543 76.4043 18.6328 76.7832 18.8125C77.166 18.9883 77.459 19.2285 77.6621 19.5332C77.8652 19.834 77.9668 20.1738 77.9668 20.5527H76.5547C76.5547 20.3848 76.5117 20.2285 76.4258 20.084C76.3438 19.9355 76.2188 19.8164 76.0508 19.7266C75.8828 19.6328 75.6719 19.5859 75.418 19.5859C75.1758 19.5859 74.9746 19.625 74.8145 19.7031C74.6582 19.7773 74.541 19.875 74.4629 19.9961C74.3887 20.1172 74.3516 20.25 74.3516 20.3945C74.3516 20.5 74.3711 20.5957 74.4102 20.6816C74.4531 20.7637 74.5234 20.8398 74.6211 20.9102C74.7188 20.9766 74.8516 21.0391 75.0195 21.0977C75.1914 21.1562 75.4062 21.2129 75.6641 21.2676C76.1484 21.3691 76.5645 21.5 76.9121 21.6602C77.2637 21.8164 77.5332 22.0195 77.7207 22.2695C77.9082 22.5156 78.002 22.8281 78.002 23.207C78.002 23.4883 77.9414 23.7461 77.8203 23.9805C77.7031 24.2109 77.5312 24.4121 77.3047 24.584C77.0781 24.752 76.8066 24.8828 76.4902 24.9766C76.1777 25.0703 75.8262 25.1172 75.4355 25.1172C74.8613 25.1172 74.375 25.0156 73.9766 24.8125C73.5781 24.6055 73.2754 24.3418 73.0684 24.0215C72.8652 23.6973 72.7637 23.3613 72.7637 23.0137H74.1289C74.1445 23.2754 74.2168 23.4844 74.3457 23.6406C74.4785 23.793 74.6426 23.9043 74.8379 23.9746C75.0371 24.041 75.2422 24.0742 75.4531 24.0742C75.707 24.0742 75.9199 24.041 76.0918 23.9746C76.2637 23.9043 76.3945 23.8105 76.4844 23.6934C76.5742 23.5723 76.6191 23.4355 76.6191 23.2832ZM85.8008 23.7285V20.7051C85.8008 20.4785 85.7598 20.2832 85.6777 20.1191C85.5957 19.9551 85.4707 19.8281 85.3027 19.7383C85.1387 19.6484 84.9316 19.6035 84.6816 19.6035C84.4512 19.6035 84.252 19.6426 84.084 19.7207C83.916 19.7988 83.7852 19.9043 83.6914 20.0371C83.5977 20.1699 83.5508 20.3203 83.5508 20.4883H82.1445C82.1445 20.2383 82.2051 19.9961 82.3262 19.7617C82.4473 19.5273 82.623 19.3184 82.8535 19.1348C83.084 18.9512 83.3594 18.8066 83.6797 18.7012C84 18.5957 84.3594 18.543 84.7578 18.543C85.2344 18.543 85.6562 18.623 86.0234 18.7832C86.3945 18.9434 86.6855 19.1855 86.8965 19.5098C87.1113 19.8301 87.2188 20.2324 87.2188 20.7168V23.5352C87.2188 23.8242 87.2383 24.084 87.2773 24.3145C87.3203 24.541 87.3809 24.7383 87.459 24.9062V25H86.0117C85.9453 24.8477 85.8926 24.6543 85.8535 24.4199C85.8184 24.1816 85.8008 23.9512 85.8008 23.7285ZM86.0059 21.1445L86.0176 22.0176H85.0039C84.7422 22.0176 84.5117 22.043 84.3125 22.0938C84.1133 22.1406 83.9473 22.2109 83.8145 22.3047C83.6816 22.3984 83.582 22.5117 83.5156 22.6445C83.4492 22.7773 83.416 22.9277 83.416 23.0957C83.416 23.2637 83.4551 23.418 83.5332 23.5586C83.6113 23.6953 83.7246 23.8027 83.873 23.8809C84.0254 23.959 84.209 23.998 84.4238 23.998C84.7129 23.998 84.9648 23.9395 85.1797 23.8223C85.3984 23.7012 85.5703 23.5547 85.6953 23.3828C85.8203 23.207 85.8867 23.041 85.8945 22.8848L86.3516 23.5117C86.3047 23.6719 86.2246 23.8438 86.1113 24.0273C85.998 24.2109 85.8496 24.3867 85.666 24.5547C85.4863 24.7188 85.2695 24.8535 85.0156 24.959C84.7656 25.0645 84.4766 25.1172 84.1484 25.1172C83.7344 25.1172 83.3652 25.0352 83.041 24.8711C82.7168 24.7031 82.4629 24.4785 82.2793 24.1973C82.0957 23.9121 82.0039 23.5898 82.0039 23.2305C82.0039 22.8945 82.0664 22.5977 82.1914 22.3398C82.3203 22.0781 82.5078 21.8594 82.7539 21.6836C83.0039 21.5078 83.3086 21.375 83.668 21.2852C84.0273 21.1914 84.4375 21.1445 84.8984 21.1445H86.0059ZM88.7012 16H90.1133V23.6465L89.9785 25H88.7012V16ZM94.25 21.7715V21.8945C94.25 22.3633 94.1973 22.7949 94.0918 23.1895C93.9902 23.5801 93.834 23.9199 93.623 24.209C93.416 24.498 93.1582 24.7227 92.8496 24.8828C92.5449 25.0391 92.1914 25.1172 91.7891 25.1172C91.3945 25.1172 91.0508 25.043 90.7578 24.8945C90.4648 24.7461 90.2188 24.5352 90.0195 24.2617C89.8242 23.9883 89.666 23.6621 89.5449 23.2832C89.4238 22.9043 89.3379 22.4863 89.2871 22.0293V21.6367C89.3379 21.1758 89.4238 20.7578 89.5449 20.3828C89.666 20.0039 89.8242 19.6777 90.0195 19.4043C90.2188 19.127 90.4629 18.9141 90.752 18.7656C91.0449 18.6172 91.3867 18.543 91.7773 18.543C92.1836 18.543 92.541 18.6211 92.8496 18.7773C93.1621 18.9336 93.4219 19.1562 93.6289 19.4453C93.8359 19.7305 93.9902 20.0703 94.0918 20.4648C94.1973 20.8594 94.25 21.2949 94.25 21.7715ZM92.8379 21.8945V21.7715C92.8379 21.4863 92.8145 21.2188 92.7676 20.9688C92.7207 20.7148 92.6426 20.4922 92.5332 20.3008C92.4277 20.1094 92.2832 19.959 92.0996 19.8496C91.9199 19.7363 91.6953 19.6797 91.4258 19.6797C91.1758 19.6797 90.9609 19.7227 90.7812 19.8086C90.6016 19.8945 90.4512 20.0117 90.3301 20.1602C90.209 20.3086 90.1133 20.4805 90.043 20.6758C89.9766 20.8711 89.9316 21.082 89.9082 21.3086V22.3691C89.9434 22.6621 90.0176 22.9316 90.1309 23.1777C90.248 23.4199 90.4121 23.6152 90.623 23.7637C90.834 23.9082 91.1055 23.9805 91.4375 23.9805C91.6992 23.9805 91.9199 23.9277 92.0996 23.8223C92.2793 23.7168 92.4219 23.5703 92.5273 23.3828C92.6367 23.1914 92.7148 22.9688 92.7617 22.7148C92.8125 22.4609 92.8379 22.1875 92.8379 21.8945ZM96.8633 19.8672V25H95.4512V18.6602H96.7988L96.8633 19.8672ZM98.8027 18.6191L98.791 19.9316C98.7051 19.916 98.6113 19.9043 98.5098 19.8965C98.4121 19.8887 98.3145 19.8848 98.2168 19.8848C97.9746 19.8848 97.7617 19.9199 97.5781 19.9902C97.3945 20.0566 97.2402 20.1543 97.1152 20.2832C96.9941 20.4082 96.9004 20.5605 96.834 20.7402C96.7676 20.9199 96.7285 21.1211 96.7168 21.3438L96.3945 21.3672C96.3945 20.9688 96.4336 20.5996 96.5117 20.2598C96.5898 19.9199 96.707 19.6211 96.8633 19.3633C97.0234 19.1055 97.2227 18.9043 97.4609 18.7598C97.7031 18.6152 97.9824 18.543 98.2988 18.543C98.3848 18.543 98.4766 18.5508 98.5742 18.5664C98.6758 18.582 98.752 18.5996 98.8027 18.6191ZM102.365 25.1172C101.896 25.1172 101.473 25.041 101.094 24.8887C100.719 24.7324 100.398 24.5156 100.133 24.2383C99.8711 23.9609 99.6699 23.6348 99.5293 23.2598C99.3887 22.8848 99.3184 22.4805 99.3184 22.0469V21.8125C99.3184 21.3164 99.3906 20.8672 99.5352 20.4648C99.6797 20.0625 99.8809 19.7188 100.139 19.4336C100.396 19.1445 100.701 18.9238 101.053 18.7715C101.404 18.6191 101.785 18.543 102.195 18.543C102.648 18.543 103.045 18.6191 103.385 18.7715C103.725 18.9238 104.006 19.1387 104.229 19.416C104.455 19.6895 104.623 20.0156 104.732 20.3945C104.846 20.7734 104.902 21.1914 104.902 21.6484V22.252H100.004V21.2383H103.508V21.127C103.5 20.873 103.449 20.6348 103.355 20.4121C103.266 20.1895 103.127 20.0098 102.939 19.873C102.752 19.7363 102.502 19.668 102.189 19.668C101.955 19.668 101.746 19.7188 101.562 19.8203C101.383 19.918 101.232 20.0605 101.111 20.248C100.99 20.4355 100.896 20.6621 100.83 20.9277C100.768 21.1895 100.736 21.4844 100.736 21.8125V22.0469C100.736 22.3242 100.773 22.582 100.848 22.8203C100.926 23.0547 101.039 23.2598 101.188 23.4355C101.336 23.6113 101.516 23.75 101.727 23.8516C101.938 23.9492 102.178 23.998 102.447 23.998C102.787 23.998 103.09 23.9297 103.355 23.793C103.621 23.6562 103.852 23.4629 104.047 23.2129L104.791 23.9336C104.654 24.1328 104.477 24.3242 104.258 24.5078C104.039 24.6875 103.771 24.834 103.455 24.9473C103.143 25.0605 102.779 25.1172 102.365 25.1172ZM107.416 19.9492V25H106.004V18.6602H107.334L107.416 19.9492ZM107.188 21.5957L106.707 21.5898C106.707 21.1523 106.762 20.748 106.871 20.377C106.98 20.0059 107.141 19.6836 107.352 19.4102C107.562 19.1328 107.824 18.9199 108.137 18.7715C108.453 18.6191 108.818 18.543 109.232 18.543C109.521 18.543 109.785 18.5859 110.023 18.6719C110.266 18.7539 110.475 18.8848 110.65 19.0645C110.83 19.2441 110.967 19.4746 111.061 19.7559C111.158 20.0371 111.207 20.377 111.207 20.7754V25H109.795V20.8984C109.795 20.5898 109.748 20.3477 109.654 20.1719C109.564 19.9961 109.434 19.8711 109.262 19.7969C109.094 19.7188 108.893 19.6797 108.658 19.6797C108.393 19.6797 108.166 19.7305 107.979 19.832C107.795 19.9336 107.645 20.0723 107.527 20.248C107.41 20.4238 107.324 20.627 107.27 20.8574C107.215 21.0879 107.188 21.334 107.188 21.5957ZM111.119 21.2207L110.457 21.3672C110.457 20.9844 110.51 20.623 110.615 20.2832C110.725 19.9395 110.883 19.6387 111.09 19.3809C111.301 19.1191 111.561 18.9141 111.869 18.7656C112.178 18.6172 112.531 18.543 112.93 18.543C113.254 18.543 113.543 18.5879 113.797 18.6777C114.055 18.7637 114.273 18.9004 114.453 19.0879C114.633 19.2754 114.77 19.5195 114.863 19.8203C114.957 20.1172 115.004 20.4766 115.004 20.8984V25H113.586V20.8926C113.586 20.5723 113.539 20.3242 113.445 20.1484C113.355 19.9727 113.227 19.8516 113.059 19.7852C112.891 19.7148 112.689 19.6797 112.455 19.6797C112.236 19.6797 112.043 19.7207 111.875 19.8027C111.711 19.8809 111.572 19.9922 111.459 20.1367C111.346 20.2773 111.26 20.4395 111.201 20.623C111.146 20.8066 111.119 21.0059 111.119 21.2207ZM123.312 23.6875V16H124.73V25H123.447L123.312 23.6875ZM119.188 21.9004V21.7773C119.188 21.2969 119.244 20.8594 119.357 20.4648C119.471 20.0664 119.635 19.7246 119.85 19.4395C120.064 19.1504 120.326 18.9297 120.635 18.7773C120.943 18.6211 121.291 18.543 121.678 18.543C122.061 18.543 122.396 18.6172 122.686 18.7656C122.975 18.9141 123.221 19.127 123.424 19.4043C123.627 19.6777 123.789 20.0059 123.91 20.3887C124.031 20.7676 124.117 21.1895 124.168 21.6543V22.0469C124.117 22.5 124.031 22.9141 123.91 23.2891C123.789 23.6641 123.627 23.9883 123.424 24.2617C123.221 24.5352 122.973 24.7461 122.68 24.8945C122.391 25.043 122.053 25.1172 121.666 25.1172C121.283 25.1172 120.938 25.0371 120.629 24.877C120.324 24.7168 120.064 24.4922 119.85 24.2031C119.635 23.9141 119.471 23.5742 119.357 23.1836C119.244 22.7891 119.188 22.3613 119.188 21.9004ZM120.6 21.7773V21.9004C120.6 22.1895 120.625 22.459 120.676 22.709C120.73 22.959 120.814 23.1797 120.928 23.3711C121.041 23.5586 121.188 23.707 121.367 23.8164C121.551 23.9219 121.77 23.9746 122.023 23.9746C122.344 23.9746 122.607 23.9043 122.814 23.7637C123.021 23.623 123.184 23.4336 123.301 23.1953C123.422 22.9531 123.504 22.6836 123.547 22.3867V21.3262C123.523 21.0957 123.475 20.8809 123.4 20.6816C123.33 20.4824 123.234 20.3086 123.113 20.1602C122.992 20.0078 122.842 19.8906 122.662 19.8086C122.486 19.7227 122.277 19.6797 122.035 19.6797C121.777 19.6797 121.559 19.7344 121.379 19.8438C121.199 19.9531 121.051 20.1035 120.934 20.2949C120.82 20.4863 120.736 20.709 120.682 20.9629C120.627 21.2168 120.6 21.4883 120.6 21.7773ZM127.719 18.6602V25H126.301V18.6602H127.719ZM126.207 16.9961C126.207 16.7812 126.277 16.6035 126.418 16.4629C126.562 16.3184 126.762 16.2461 127.016 16.2461C127.266 16.2461 127.463 16.3184 127.607 16.4629C127.752 16.6035 127.824 16.7812 127.824 16.9961C127.824 17.207 127.752 17.3828 127.607 17.5234C127.463 17.6641 127.266 17.7344 127.016 17.7344C126.762 17.7344 126.562 17.6641 126.418 17.5234C126.277 17.3828 126.207 17.207 126.207 16.9961ZM132.84 23.7285V20.7051C132.84 20.4785 132.799 20.2832 132.717 20.1191C132.635 19.9551 132.51 19.8281 132.342 19.7383C132.178 19.6484 131.971 19.6035 131.721 19.6035C131.49 19.6035 131.291 19.6426 131.123 19.7207C130.955 19.7988 130.824 19.9043 130.73 20.0371C130.637 20.1699 130.59 20.3203 130.59 20.4883H129.184C129.184 20.2383 129.244 19.9961 129.365 19.7617C129.486 19.5273 129.662 19.3184 129.893 19.1348C130.123 18.9512 130.398 18.8066 130.719 18.7012C131.039 18.5957 131.398 18.543 131.797 18.543C132.273 18.543 132.695 18.623 133.062 18.7832C133.434 18.9434 133.725 19.1855 133.936 19.5098C134.15 19.8301 134.258 20.2324 134.258 20.7168V23.5352C134.258 23.8242 134.277 24.084 134.316 24.3145C134.359 24.541 134.42 24.7383 134.498 24.9062V25H133.051C132.984 24.8477 132.932 24.6543 132.893 24.4199C132.857 24.1816 132.84 23.9512 132.84 23.7285ZM133.045 21.1445L133.057 22.0176H132.043C131.781 22.0176 131.551 22.043 131.352 22.0938C131.152 22.1406 130.986 22.2109 130.854 22.3047C130.721 22.3984 130.621 22.5117 130.555 22.6445C130.488 22.7773 130.455 22.9277 130.455 23.0957C130.455 23.2637 130.494 23.418 130.572 23.5586C130.65 23.6953 130.764 23.8027 130.912 23.8809C131.064 23.959 131.248 23.998 131.463 23.998C131.752 23.998 132.004 23.9395 132.219 23.8223C132.438 23.7012 132.609 23.5547 132.734 23.3828C132.859 23.207 132.926 23.041 132.934 22.8848L133.391 23.5117C133.344 23.6719 133.264 23.8438 133.15 24.0273C133.037 24.2109 132.889 24.3867 132.705 24.5547C132.525 24.7188 132.309 24.8535 132.055 24.959C131.805 25.0645 131.516 25.1172 131.188 25.1172C130.773 25.1172 130.404 25.0352 130.08 24.8711C129.756 24.7031 129.502 24.4785 129.318 24.1973C129.135 23.9121 129.043 23.5898 129.043 23.2305C129.043 22.8945 129.105 22.5977 129.23 22.3398C129.359 22.0781 129.547 21.8594 129.793 21.6836C130.043 21.5078 130.348 21.375 130.707 21.2852C131.066 21.1914 131.477 21.1445 131.938 21.1445H133.045ZM142.496 16.4395V25H141.084V18.1152L138.992 18.8242V17.6582L142.326 16.4395H142.496ZM152.398 23.6875V16H153.816V25H152.533L152.398 23.6875ZM148.273 21.9004V21.7773C148.273 21.2969 148.33 20.8594 148.443 20.4648C148.557 20.0664 148.721 19.7246 148.936 19.4395C149.15 19.1504 149.412 18.9297 149.721 18.7773C150.029 18.6211 150.377 18.543 150.764 18.543C151.146 18.543 151.482 18.6172 151.771 18.7656C152.061 18.9141 152.307 19.127 152.51 19.4043C152.713 19.6777 152.875 20.0059 152.996 20.3887C153.117 20.7676 153.203 21.1895 153.254 21.6543V22.0469C153.203 22.5 153.117 22.9141 152.996 23.2891C152.875 23.6641 152.713 23.9883 152.51 24.2617C152.307 24.5352 152.059 24.7461 151.766 24.8945C151.477 25.043 151.139 25.1172 150.752 25.1172C150.369 25.1172 150.023 25.0371 149.715 24.877C149.41 24.7168 149.15 24.4922 148.936 24.2031C148.721 23.9141 148.557 23.5742 148.443 23.1836C148.33 22.7891 148.273 22.3613 148.273 21.9004ZM149.686 21.7773V21.9004C149.686 22.1895 149.711 22.459 149.762 22.709C149.816 22.959 149.9 23.1797 150.014 23.3711C150.127 23.5586 150.273 23.707 150.453 23.8164C150.637 23.9219 150.855 23.9746 151.109 23.9746C151.43 23.9746 151.693 23.9043 151.9 23.7637C152.107 23.623 152.27 23.4336 152.387 23.1953C152.508 22.9531 152.59 22.6836 152.633 22.3867V21.3262C152.609 21.0957 152.561 20.8809 152.486 20.6816C152.416 20.4824 152.32 20.3086 152.199 20.1602C152.078 20.0078 151.928 19.8906 151.748 19.8086C151.572 19.7227 151.363 19.6797 151.121 19.6797C150.863 19.6797 150.645 19.7344 150.465 19.8438C150.285 19.9531 150.137 20.1035 150.02 20.2949C149.906 20.4863 149.822 20.709 149.768 20.9629C149.713 21.2168 149.686 21.4883 149.686 21.7773ZM158.088 25.1172C157.619 25.1172 157.195 25.041 156.816 24.8887C156.441 24.7324 156.121 24.5156 155.855 24.2383C155.594 23.9609 155.393 23.6348 155.252 23.2598C155.111 22.8848 155.041 22.4805 155.041 22.0469V21.8125C155.041 21.3164 155.113 20.8672 155.258 20.4648C155.402 20.0625 155.604 19.7188 155.861 19.4336C156.119 19.1445 156.424 18.9238 156.775 18.7715C157.127 18.6191 157.508 18.543 157.918 18.543C158.371 18.543 158.768 18.6191 159.107 18.7715C159.447 18.9238 159.729 19.1387 159.951 19.416C160.178 19.6895 160.346 20.0156 160.455 20.3945C160.568 20.7734 160.625 21.1914 160.625 21.6484V22.252H155.727V21.2383H159.23V21.127C159.223 20.873 159.172 20.6348 159.078 20.4121C158.988 20.1895 158.85 20.0098 158.662 19.873C158.475 19.7363 158.225 19.668 157.912 19.668C157.678 19.668 157.469 19.7188 157.285 19.8203C157.105 19.918 156.955 20.0605 156.834 20.248C156.713 20.4355 156.619 20.6621 156.553 20.9277C156.49 21.1895 156.459 21.4844 156.459 21.8125V22.0469C156.459 22.3242 156.496 22.582 156.57 22.8203C156.648 23.0547 156.762 23.2598 156.91 23.4355C157.059 23.6113 157.238 23.75 157.449 23.8516C157.66 23.9492 157.9 23.998 158.17 23.998C158.51 23.998 158.812 23.9297 159.078 23.793C159.344 23.6562 159.574 23.4629 159.77 23.2129L160.514 23.9336C160.377 24.1328 160.199 24.3242 159.98 24.5078C159.762 24.6875 159.494 24.834 159.178 24.9473C158.865 25.0605 158.502 25.1172 158.088 25.1172ZM166.127 19.9492V25H164.715V18.6602H166.045L166.127 19.9492ZM165.898 21.5957L165.418 21.5898C165.418 21.1523 165.473 20.748 165.582 20.377C165.691 20.0059 165.852 19.6836 166.062 19.4102C166.273 19.1328 166.535 18.9199 166.848 18.7715C167.164 18.6191 167.529 18.543 167.943 18.543C168.232 18.543 168.496 18.5859 168.734 18.6719C168.977 18.7539 169.186 18.8848 169.361 19.0645C169.541 19.2441 169.678 19.4746 169.771 19.7559C169.869 20.0371 169.918 20.377 169.918 20.7754V25H168.506V20.8984C168.506 20.5898 168.459 20.3477 168.365 20.1719C168.275 19.9961 168.145 19.8711 167.973 19.7969C167.805 19.7188 167.604 19.6797 167.369 19.6797C167.104 19.6797 166.877 19.7305 166.689 19.832C166.506 19.9336 166.355 20.0723 166.238 20.248C166.121 20.4238 166.035 20.627 165.98 20.8574C165.926 21.0879 165.898 21.334 165.898 21.5957ZM169.83 21.2207L169.168 21.3672C169.168 20.9844 169.221 20.623 169.326 20.2832C169.436 19.9395 169.594 19.6387 169.801 19.3809C170.012 19.1191 170.271 18.9141 170.58 18.7656C170.889 18.6172 171.242 18.543 171.641 18.543C171.965 18.543 172.254 18.5879 172.508 18.6777C172.766 18.7637 172.984 18.9004 173.164 19.0879C173.344 19.2754 173.48 19.5195 173.574 19.8203C173.668 20.1172 173.715 20.4766 173.715 20.8984V25H172.297V20.8926C172.297 20.5723 172.25 20.3242 172.156 20.1484C172.066 19.9727 171.938 19.8516 171.77 19.7852C171.602 19.7148 171.4 19.6797 171.166 19.6797C170.947 19.6797 170.754 19.7207 170.586 19.8027C170.422 19.8809 170.283 19.9922 170.17 20.1367C170.057 20.2773 169.971 20.4395 169.912 20.623C169.857 20.8066 169.83 21.0059 169.83 21.2207ZM178.742 23.7285V20.7051C178.742 20.4785 178.701 20.2832 178.619 20.1191C178.537 19.9551 178.412 19.8281 178.244 19.7383C178.08 19.6484 177.873 19.6035 177.623 19.6035C177.393 19.6035 177.193 19.6426 177.025 19.7207C176.857 19.7988 176.727 19.9043 176.633 20.0371C176.539 20.1699 176.492 20.3203 176.492 20.4883H175.086C175.086 20.2383 175.146 19.9961 175.268 19.7617C175.389 19.5273 175.564 19.3184 175.795 19.1348C176.025 18.9512 176.301 18.8066 176.621 18.7012C176.941 18.5957 177.301 18.543 177.699 18.543C178.176 18.543 178.598 18.623 178.965 18.7832C179.336 18.9434 179.627 19.1855 179.838 19.5098C180.053 19.8301 180.16 20.2324 180.16 20.7168V23.5352C180.16 23.8242 180.18 24.084 180.219 24.3145C180.262 24.541 180.322 24.7383 180.4 24.9062V25H178.953C178.887 24.8477 178.834 24.6543 178.795 24.4199C178.76 24.1816 178.742 23.9512 178.742 23.7285ZM178.947 21.1445L178.959 22.0176H177.945C177.684 22.0176 177.453 22.043 177.254 22.0938C177.055 22.1406 176.889 22.2109 176.756 22.3047C176.623 22.3984 176.523 22.5117 176.457 22.6445C176.391 22.7773 176.357 22.9277 176.357 23.0957C176.357 23.2637 176.396 23.418 176.475 23.5586C176.553 23.6953 176.666 23.8027 176.814 23.8809C176.967 23.959 177.15 23.998 177.365 23.998C177.654 23.998 177.906 23.9395 178.121 23.8223C178.34 23.7012 178.512 23.5547 178.637 23.3828C178.762 23.207 178.828 23.041 178.836 22.8848L179.293 23.5117C179.246 23.6719 179.166 23.8438 179.053 24.0273C178.939 24.2109 178.791 24.3867 178.607 24.5547C178.428 24.7188 178.211 24.8535 177.957 24.959C177.707 25.0645 177.418 25.1172 177.09 25.1172C176.676 25.1172 176.307 25.0352 175.982 24.8711C175.658 24.7031 175.404 24.4785 175.221 24.1973C175.037 23.9121 174.945 23.5898 174.945 23.2305C174.945 22.8945 175.008 22.5977 175.133 22.3398C175.262 22.0781 175.449 21.8594 175.695 21.6836C175.945 21.5078 176.25 21.375 176.609 21.2852C176.969 21.1914 177.379 21.1445 177.84 21.1445H178.947ZM183.148 18.6602V25H181.73V18.6602H183.148ZM181.637 16.9961C181.637 16.7812 181.707 16.6035 181.848 16.4629C181.992 16.3184 182.191 16.2461 182.445 16.2461C182.695 16.2461 182.893 16.3184 183.037 16.4629C183.182 16.6035 183.254 16.7812 183.254 16.9961C183.254 17.207 183.182 17.3828 183.037 17.5234C182.893 17.6641 182.695 17.7344 182.445 17.7344C182.191 17.7344 181.992 17.6641 181.848 17.5234C181.707 17.3828 181.637 17.207 181.637 16.9961ZM184.426 21.9004V21.7656C184.426 21.3086 184.492 20.8848 184.625 20.4941C184.758 20.0996 184.949 19.7578 185.199 19.4688C185.453 19.1758 185.762 18.9492 186.125 18.7891C186.492 18.625 186.906 18.543 187.367 18.543C187.832 18.543 188.246 18.625 188.609 18.7891C188.977 18.9492 189.287 19.1758 189.541 19.4688C189.795 19.7578 189.988 20.0996 190.121 20.4941C190.254 20.8848 190.32 21.3086 190.32 21.7656V21.9004C190.32 22.3574 190.254 22.7812 190.121 23.1719C189.988 23.5625 189.795 23.9043 189.541 24.1973C189.287 24.4863 188.979 24.7129 188.615 24.877C188.252 25.0371 187.84 25.1172 187.379 25.1172C186.914 25.1172 186.498 25.0371 186.131 24.877C185.768 24.7129 185.459 24.4863 185.205 24.1973C184.951 23.9043 184.758 23.5625 184.625 23.1719C184.492 22.7812 184.426 22.3574 184.426 21.9004ZM185.838 21.7656V21.9004C185.838 22.1855 185.867 22.4551 185.926 22.709C185.984 22.9629 186.076 23.1855 186.201 23.377C186.326 23.5684 186.486 23.7188 186.682 23.8281C186.877 23.9375 187.109 23.9922 187.379 23.9922C187.641 23.9922 187.867 23.9375 188.059 23.8281C188.254 23.7188 188.414 23.5684 188.539 23.377C188.664 23.1855 188.756 22.9629 188.814 22.709C188.877 22.4551 188.908 22.1855 188.908 21.9004V21.7656C188.908 21.4844 188.877 21.2188 188.814 20.9688C188.756 20.7148 188.662 20.4902 188.533 20.2949C188.408 20.0996 188.248 19.9473 188.053 19.8379C187.861 19.7246 187.633 19.668 187.367 19.668C187.102 19.668 186.871 19.7246 186.676 19.8379C186.484 19.9473 186.326 20.0996 186.201 20.2949C186.076 20.4902 185.984 20.7148 185.926 20.9688C185.867 21.2188 185.838 21.4844 185.838 21.7656Z" fill="#C2C2C2"/>
</svg>
