<svg class="add-educando" width="292" height="48" viewBox="0 0 292 48" fill="none" xmlns="http://www.w3.org/2000/svg">
<rect width="292" height="48" rx="18" fill="currentColor"/>
<path d="M51.0002 31.1666V24.5M51.0002 24.5V17.8333M51.0002 24.5H57.6668M51.0002 24.5H44.3335" stroke="#FEFEFE" stroke-width="1.66667" stroke-linecap="round"/>
<path d="M80.1855 18.6758L75.9375 31H73.3691L78.7207 16.7812H80.3613L80.1855 18.6758ZM83.7402 31L79.4824 18.6758L79.2969 16.7812H80.9473L86.3184 31H83.7402ZM83.5352 25.7266V27.6699H75.8008V25.7266H83.5352ZM94.1211 28.8125V16H96.4844V31H94.3457L94.1211 28.8125ZM87.2461 25.834V25.6289C87.2461 24.8281 87.3405 24.099 87.5293 23.4414C87.7181 22.7773 87.9915 22.2077 88.3496 21.7324C88.7077 21.2507 89.1439 20.8828 89.6582 20.6289C90.1725 20.3685 90.752 20.2383 91.3965 20.2383C92.0345 20.2383 92.5944 20.362 93.0762 20.6094C93.5579 20.8568 93.9681 21.2116 94.3066 21.6738C94.6452 22.1296 94.9154 22.6764 95.1172 23.3145C95.319 23.946 95.4622 24.6491 95.5469 25.4238V26.0781C95.4622 26.8333 95.319 27.5234 95.1172 28.1484C94.9154 28.7734 94.6452 29.3138 94.3066 29.7695C93.9681 30.2253 93.5547 30.5768 93.0664 30.8242C92.5846 31.0716 92.0215 31.1953 91.377 31.1953C90.7389 31.1953 90.1628 31.0618 89.6484 30.7949C89.1406 30.528 88.7077 30.1536 88.3496 29.6719C87.9915 29.1901 87.7181 28.6237 87.5293 27.9727C87.3405 27.3151 87.2461 26.6022 87.2461 25.834ZM89.5996 25.6289V25.834C89.5996 26.3158 89.6419 26.765 89.7266 27.1816C89.8177 27.5983 89.9577 27.9661 90.1465 28.2852C90.3353 28.5977 90.5794 28.8451 90.8789 29.0273C91.1849 29.2031 91.5495 29.291 91.9727 29.291C92.5065 29.291 92.946 29.1738 93.291 28.9395C93.6361 28.7051 93.9062 28.3893 94.1016 27.9922C94.3034 27.5885 94.4401 27.1393 94.5117 26.6445V24.877C94.4727 24.4928 94.3913 24.1348 94.2676 23.8027C94.1504 23.4707 93.9909 23.181 93.7891 22.9336C93.5872 22.6797 93.3366 22.4844 93.0371 22.3477C92.7441 22.2044 92.3958 22.1328 91.9922 22.1328C91.5625 22.1328 91.1979 22.224 90.8984 22.4062C90.599 22.5885 90.3516 22.8392 90.1562 23.1582C89.9674 23.4772 89.8275 23.8483 89.7363 24.2715C89.6452 24.6947 89.5996 25.1471 89.5996 25.6289ZM101.465 20.4336V31H99.1016V20.4336H101.465ZM98.9453 17.6602C98.9453 17.3021 99.0625 17.0059 99.2969 16.7715C99.5378 16.5306 99.8698 16.4102 100.293 16.4102C100.71 16.4102 101.038 16.5306 101.279 16.7715C101.52 17.0059 101.641 17.3021 101.641 17.6602C101.641 18.0117 101.52 18.3047 101.279 18.5391C101.038 18.7734 100.71 18.8906 100.293 18.8906C99.8698 18.8906 99.5378 18.7734 99.2969 18.5391C99.0625 18.3047 98.9453 18.0117 98.9453 17.6602ZM108.359 29.3203C108.743 29.3203 109.089 29.2454 109.395 29.0957C109.707 28.9395 109.958 28.7246 110.146 28.4512C110.342 28.1777 110.449 27.862 110.469 27.5039H112.686C112.673 28.1875 112.471 28.8092 112.08 29.3691C111.689 29.929 111.172 30.375 110.527 30.707C109.883 31.0326 109.17 31.1953 108.389 31.1953C107.581 31.1953 106.878 31.0586 106.279 30.7852C105.68 30.5052 105.182 30.1211 104.785 29.6328C104.388 29.1445 104.089 28.5814 103.887 27.9434C103.691 27.3053 103.594 26.6217 103.594 25.8926V25.5508C103.594 24.8216 103.691 24.138 103.887 23.5C104.089 22.8555 104.388 22.2891 104.785 21.8008C105.182 21.3125 105.68 20.9316 106.279 20.6582C106.878 20.3783 107.578 20.2383 108.379 20.2383C109.225 20.2383 109.967 20.4076 110.605 20.7461C111.243 21.0781 111.745 21.5436 112.109 22.1426C112.48 22.735 112.673 23.4251 112.686 24.2129H110.469C110.449 23.8223 110.352 23.4707 110.176 23.1582C110.007 22.8392 109.766 22.5853 109.453 22.3965C109.147 22.2077 108.779 22.1133 108.35 22.1133C107.874 22.1133 107.48 22.2109 107.168 22.4062C106.855 22.5951 106.611 22.8555 106.436 23.1875C106.26 23.513 106.133 23.8809 106.055 24.291C105.983 24.6947 105.947 25.1146 105.947 25.5508V25.8926C105.947 26.3288 105.983 26.752 106.055 27.1621C106.126 27.5723 106.25 27.9401 106.426 28.2656C106.608 28.5846 106.855 28.8418 107.168 29.0371C107.48 29.2259 107.878 29.3203 108.359 29.3203ZM117.012 20.4336V31H114.648V20.4336H117.012ZM114.492 17.6602C114.492 17.3021 114.609 17.0059 114.844 16.7715C115.085 16.5306 115.417 16.4102 115.84 16.4102C116.257 16.4102 116.585 16.5306 116.826 16.7715C117.067 17.0059 117.188 17.3021 117.188 17.6602C117.188 18.0117 117.067 18.3047 116.826 18.5391C116.585 18.7734 116.257 18.8906 115.84 18.8906C115.417 18.8906 115.085 18.7734 114.844 18.5391C114.609 18.3047 114.492 18.0117 114.492 17.6602ZM119.141 25.834V25.6094C119.141 24.8477 119.251 24.1413 119.473 23.4902C119.694 22.8327 120.013 22.263 120.43 21.7812C120.853 21.293 121.367 20.9154 121.973 20.6484C122.585 20.375 123.275 20.2383 124.043 20.2383C124.818 20.2383 125.508 20.375 126.113 20.6484C126.725 20.9154 127.243 21.293 127.666 21.7812C128.089 22.263 128.411 22.8327 128.633 23.4902C128.854 24.1413 128.965 24.8477 128.965 25.6094V25.834C128.965 26.5957 128.854 27.3021 128.633 27.9531C128.411 28.6042 128.089 29.1738 127.666 29.6621C127.243 30.1439 126.729 30.5215 126.123 30.7949C125.518 31.0618 124.831 31.1953 124.062 31.1953C123.288 31.1953 122.594 31.0618 121.982 30.7949C121.377 30.5215 120.863 30.1439 120.439 29.6621C120.016 29.1738 119.694 28.6042 119.473 27.9531C119.251 27.3021 119.141 26.5957 119.141 25.834ZM121.494 25.6094V25.834C121.494 26.3092 121.543 26.7585 121.641 27.1816C121.738 27.6048 121.891 27.9759 122.1 28.2949C122.308 28.6139 122.575 28.8646 122.9 29.0469C123.226 29.2292 123.613 29.3203 124.062 29.3203C124.499 29.3203 124.876 29.2292 125.195 29.0469C125.521 28.8646 125.788 28.6139 125.996 28.2949C126.204 27.9759 126.357 27.6048 126.455 27.1816C126.559 26.7585 126.611 26.3092 126.611 25.834V25.6094C126.611 25.1406 126.559 24.6979 126.455 24.2812C126.357 23.8581 126.201 23.4837 125.986 23.1582C125.778 22.8327 125.511 22.5788 125.186 22.3965C124.867 22.2077 124.486 22.1133 124.043 22.1133C123.6 22.1133 123.216 22.2077 122.891 22.3965C122.572 22.5788 122.308 22.8327 122.1 23.1582C121.891 23.4837 121.738 23.8581 121.641 24.2812C121.543 24.6979 121.494 25.1406 121.494 25.6094ZM133.271 22.6895V31H130.918V20.4336H133.135L133.271 22.6895ZM132.852 25.3262L132.09 25.3164C132.096 24.5677 132.201 23.8809 132.402 23.2559C132.611 22.6309 132.897 22.0938 133.262 21.6445C133.633 21.1953 134.076 20.8503 134.59 20.6094C135.104 20.362 135.677 20.2383 136.309 20.2383C136.816 20.2383 137.275 20.3099 137.686 20.4531C138.102 20.5898 138.457 20.8145 138.75 21.127C139.049 21.4395 139.277 21.8464 139.434 22.3477C139.59 22.8424 139.668 23.4512 139.668 24.1738V31H137.305V24.1641C137.305 23.6562 137.23 23.2559 137.08 22.9629C136.937 22.6634 136.725 22.4518 136.445 22.3281C136.172 22.1979 135.83 22.1328 135.42 22.1328C135.016 22.1328 134.655 22.2174 134.336 22.3867C134.017 22.556 133.747 22.7871 133.525 23.0801C133.311 23.373 133.145 23.7116 133.027 24.0957C132.91 24.4798 132.852 24.89 132.852 25.3262ZM148.027 28.8809V23.8418C148.027 23.4642 147.959 23.1387 147.822 22.8652C147.686 22.5918 147.477 22.3802 147.197 22.2305C146.924 22.0807 146.579 22.0059 146.162 22.0059C145.778 22.0059 145.446 22.071 145.166 22.2012C144.886 22.3314 144.668 22.5072 144.512 22.7285C144.355 22.9499 144.277 23.2005 144.277 23.4805H141.934C141.934 23.0638 142.035 22.6602 142.236 22.2695C142.438 21.8789 142.731 21.5306 143.115 21.2246C143.499 20.9186 143.958 20.6777 144.492 20.502C145.026 20.3262 145.625 20.2383 146.289 20.2383C147.083 20.2383 147.786 20.3717 148.398 20.6387C149.017 20.9056 149.502 21.3092 149.854 21.8496C150.212 22.3835 150.391 23.054 150.391 23.8613V28.5586C150.391 29.0404 150.423 29.4733 150.488 29.8574C150.56 30.235 150.661 30.5638 150.791 30.8438V31H148.379C148.268 30.7461 148.18 30.4238 148.115 30.0332C148.057 29.6361 148.027 29.252 148.027 28.8809ZM148.369 24.5742L148.389 26.0293H146.699C146.263 26.0293 145.879 26.0716 145.547 26.1562C145.215 26.2344 144.938 26.3516 144.717 26.5078C144.495 26.6641 144.329 26.8529 144.219 27.0742C144.108 27.2956 144.053 27.5462 144.053 27.8262C144.053 28.1061 144.118 28.3633 144.248 28.5977C144.378 28.8255 144.567 29.0046 144.814 29.1348C145.068 29.265 145.374 29.3301 145.732 29.3301C146.214 29.3301 146.634 29.2324 146.992 29.0371C147.357 28.8353 147.643 28.5911 147.852 28.3047C148.06 28.0117 148.171 27.735 148.184 27.4746L148.945 28.5195C148.867 28.7865 148.734 29.0729 148.545 29.3789C148.356 29.6849 148.109 29.9779 147.803 30.2578C147.503 30.5312 147.142 30.7559 146.719 30.9316C146.302 31.1074 145.82 31.1953 145.273 31.1953C144.583 31.1953 143.968 31.0586 143.428 30.7852C142.887 30.5052 142.464 30.1309 142.158 29.6621C141.852 29.1868 141.699 28.6497 141.699 28.0508C141.699 27.4909 141.803 26.9961 142.012 26.5664C142.227 26.1302 142.539 25.7656 142.949 25.4727C143.366 25.1797 143.874 24.9583 144.473 24.8086C145.072 24.6523 145.755 24.5742 146.523 24.5742H148.369ZM155.215 22.4453V31H152.861V20.4336H155.107L155.215 22.4453ZM158.447 20.3652L158.428 22.5527C158.285 22.5267 158.128 22.5072 157.959 22.4941C157.796 22.4811 157.633 22.4746 157.471 22.4746C157.067 22.4746 156.712 22.5332 156.406 22.6504C156.1 22.7611 155.843 22.9238 155.635 23.1387C155.433 23.347 155.277 23.6009 155.166 23.9004C155.055 24.1999 154.99 24.5352 154.971 24.9062L154.434 24.9453C154.434 24.2812 154.499 23.666 154.629 23.0996C154.759 22.5332 154.954 22.0352 155.215 21.6055C155.482 21.1758 155.814 20.8405 156.211 20.5996C156.615 20.3587 157.08 20.2383 157.607 20.2383C157.751 20.2383 157.904 20.2513 158.066 20.2773C158.236 20.3034 158.363 20.3327 158.447 20.3652ZM169.561 31.1953C168.779 31.1953 168.073 31.0684 167.441 30.8145C166.816 30.554 166.283 30.1927 165.84 29.7305C165.404 29.2682 165.068 28.7246 164.834 28.0996C164.6 27.4746 164.482 26.8008 164.482 26.0781V25.6875C164.482 24.8607 164.603 24.112 164.844 23.4414C165.085 22.7708 165.42 22.1979 165.85 21.7227C166.279 21.2409 166.787 20.873 167.373 20.6191C167.959 20.3652 168.594 20.2383 169.277 20.2383C170.033 20.2383 170.693 20.3652 171.26 20.6191C171.826 20.873 172.295 21.2311 172.666 21.6934C173.044 22.1491 173.324 22.6927 173.506 23.3242C173.695 23.9557 173.789 24.6523 173.789 25.4141V26.4199H165.625V24.7305H171.465V24.5449C171.452 24.1217 171.367 23.7246 171.211 23.3535C171.061 22.9824 170.83 22.6829 170.518 22.4551C170.205 22.2272 169.788 22.1133 169.268 22.1133C168.877 22.1133 168.529 22.1979 168.223 22.3672C167.923 22.5299 167.673 22.7676 167.471 23.0801C167.269 23.3926 167.113 23.7702 167.002 24.2129C166.898 24.6491 166.846 25.1406 166.846 25.6875V26.0781C166.846 26.5404 166.908 26.9701 167.031 27.3672C167.161 27.7578 167.35 28.0996 167.598 28.3926C167.845 28.6855 168.145 28.9167 168.496 29.0859C168.848 29.2487 169.248 29.3301 169.697 29.3301C170.264 29.3301 170.768 29.2161 171.211 28.9883C171.654 28.7604 172.038 28.4382 172.363 28.0215L173.604 29.2227C173.376 29.5547 173.079 29.8737 172.715 30.1797C172.35 30.4792 171.904 30.7233 171.377 30.9121C170.856 31.1009 170.251 31.1953 169.561 31.1953ZM182.07 28.8125V16H184.434V31H182.295L182.07 28.8125ZM175.195 25.834V25.6289C175.195 24.8281 175.29 24.099 175.479 23.4414C175.667 22.7773 175.941 22.2077 176.299 21.7324C176.657 21.2507 177.093 20.8828 177.607 20.6289C178.122 20.3685 178.701 20.2383 179.346 20.2383C179.984 20.2383 180.544 20.362 181.025 20.6094C181.507 20.8568 181.917 21.2116 182.256 21.6738C182.594 22.1296 182.865 22.6764 183.066 23.3145C183.268 23.946 183.411 24.6491 183.496 25.4238V26.0781C183.411 26.8333 183.268 27.5234 183.066 28.1484C182.865 28.7734 182.594 29.3138 182.256 29.7695C181.917 30.2253 181.504 30.5768 181.016 30.8242C180.534 31.0716 179.971 31.1953 179.326 31.1953C178.688 31.1953 178.112 31.0618 177.598 30.7949C177.09 30.528 176.657 30.1536 176.299 29.6719C175.941 29.1901 175.667 28.6237 175.479 27.9727C175.29 27.3151 175.195 26.6022 175.195 25.834ZM177.549 25.6289V25.834C177.549 26.3158 177.591 26.765 177.676 27.1816C177.767 27.5983 177.907 27.9661 178.096 28.2852C178.285 28.5977 178.529 28.8451 178.828 29.0273C179.134 29.2031 179.499 29.291 179.922 29.291C180.456 29.291 180.895 29.1738 181.24 28.9395C181.585 28.7051 181.855 28.3893 182.051 27.9922C182.253 27.5885 182.389 27.1393 182.461 26.6445V24.877C182.422 24.4928 182.34 24.1348 182.217 23.8027C182.1 23.4707 181.94 23.181 181.738 22.9336C181.536 22.6797 181.286 22.4844 180.986 22.3477C180.693 22.2044 180.345 22.1328 179.941 22.1328C179.512 22.1328 179.147 22.224 178.848 22.4062C178.548 22.5885 178.301 22.8392 178.105 23.1582C177.917 23.4772 177.777 23.8483 177.686 24.2715C177.594 24.6947 177.549 25.1471 177.549 25.6289ZM193.252 28.5098V20.4336H195.615V31H193.389L193.252 28.5098ZM193.584 26.3125L194.375 26.293C194.375 27.0026 194.297 27.6569 194.141 28.2559C193.984 28.8483 193.743 29.3659 193.418 29.8086C193.092 30.2448 192.676 30.5866 192.168 30.834C191.66 31.0749 191.051 31.1953 190.342 31.1953C189.827 31.1953 189.355 31.1204 188.926 30.9707C188.496 30.821 188.125 30.5898 187.812 30.2773C187.507 29.9648 187.269 29.5579 187.1 29.0566C186.93 28.5553 186.846 27.9564 186.846 27.2598V20.4336H189.199V27.2793C189.199 27.6634 189.245 27.9857 189.336 28.2461C189.427 28.5 189.551 28.7051 189.707 28.8613C189.863 29.0176 190.046 29.1283 190.254 29.1934C190.462 29.2585 190.684 29.291 190.918 29.291C191.589 29.291 192.116 29.1608 192.5 28.9004C192.891 28.6335 193.167 28.2754 193.33 27.8262C193.499 27.377 193.584 26.8724 193.584 26.3125ZM202.344 29.3203C202.728 29.3203 203.073 29.2454 203.379 29.0957C203.691 28.9395 203.942 28.7246 204.131 28.4512C204.326 28.1777 204.434 27.862 204.453 27.5039H206.67C206.657 28.1875 206.455 28.8092 206.064 29.3691C205.674 29.929 205.156 30.375 204.512 30.707C203.867 31.0326 203.154 31.1953 202.373 31.1953C201.566 31.1953 200.863 31.0586 200.264 30.7852C199.665 30.5052 199.167 30.1211 198.77 29.6328C198.372 29.1445 198.073 28.5814 197.871 27.9434C197.676 27.3053 197.578 26.6217 197.578 25.8926V25.5508C197.578 24.8216 197.676 24.138 197.871 23.5C198.073 22.8555 198.372 22.2891 198.77 21.8008C199.167 21.3125 199.665 20.9316 200.264 20.6582C200.863 20.3783 201.562 20.2383 202.363 20.2383C203.21 20.2383 203.952 20.4076 204.59 20.7461C205.228 21.0781 205.729 21.5436 206.094 22.1426C206.465 22.735 206.657 23.4251 206.67 24.2129H204.453C204.434 23.8223 204.336 23.4707 204.16 23.1582C203.991 22.8392 203.75 22.5853 203.438 22.3965C203.132 22.2077 202.764 22.1133 202.334 22.1133C201.859 22.1133 201.465 22.2109 201.152 22.4062C200.84 22.5951 200.596 22.8555 200.42 23.1875C200.244 23.513 200.117 23.8809 200.039 24.291C199.967 24.6947 199.932 25.1146 199.932 25.5508V25.8926C199.932 26.3288 199.967 26.752 200.039 27.1621C200.111 27.5723 200.234 27.9401 200.41 28.2656C200.592 28.5846 200.84 28.8418 201.152 29.0371C201.465 29.2259 201.862 29.3203 202.344 29.3203ZM214.434 28.8809V23.8418C214.434 23.4642 214.365 23.1387 214.229 22.8652C214.092 22.5918 213.883 22.3802 213.604 22.2305C213.33 22.0807 212.985 22.0059 212.568 22.0059C212.184 22.0059 211.852 22.071 211.572 22.2012C211.292 22.3314 211.074 22.5072 210.918 22.7285C210.762 22.9499 210.684 23.2005 210.684 23.4805H208.34C208.34 23.0638 208.441 22.6602 208.643 22.2695C208.844 21.8789 209.137 21.5306 209.521 21.2246C209.906 20.9186 210.365 20.6777 210.898 20.502C211.432 20.3262 212.031 20.2383 212.695 20.2383C213.49 20.2383 214.193 20.3717 214.805 20.6387C215.423 20.9056 215.908 21.3092 216.26 21.8496C216.618 22.3835 216.797 23.054 216.797 23.8613V28.5586C216.797 29.0404 216.829 29.4733 216.895 29.8574C216.966 30.235 217.067 30.5638 217.197 30.8438V31H214.785C214.674 30.7461 214.587 30.4238 214.521 30.0332C214.463 29.6361 214.434 29.252 214.434 28.8809ZM214.775 24.5742L214.795 26.0293H213.105C212.669 26.0293 212.285 26.0716 211.953 26.1562C211.621 26.2344 211.344 26.3516 211.123 26.5078C210.902 26.6641 210.736 26.8529 210.625 27.0742C210.514 27.2956 210.459 27.5462 210.459 27.8262C210.459 28.1061 210.524 28.3633 210.654 28.5977C210.785 28.8255 210.973 29.0046 211.221 29.1348C211.475 29.265 211.781 29.3301 212.139 29.3301C212.62 29.3301 213.04 29.2324 213.398 29.0371C213.763 28.8353 214.049 28.5911 214.258 28.3047C214.466 28.0117 214.577 27.735 214.59 27.4746L215.352 28.5195C215.273 28.7865 215.14 29.0729 214.951 29.3789C214.762 29.6849 214.515 29.9779 214.209 30.2578C213.91 30.5312 213.548 30.7559 213.125 30.9316C212.708 31.1074 212.227 31.1953 211.68 31.1953C210.99 31.1953 210.374 31.0586 209.834 30.7852C209.294 30.5052 208.87 30.1309 208.564 29.6621C208.258 29.1868 208.105 28.6497 208.105 28.0508C208.105 27.4909 208.21 26.9961 208.418 26.5664C208.633 26.1302 208.945 25.7656 209.355 25.4727C209.772 25.1797 210.28 24.9583 210.879 24.8086C211.478 24.6523 212.161 24.5742 212.93 24.5742H214.775ZM221.592 22.6895V31H219.238V20.4336H221.455L221.592 22.6895ZM221.172 25.3262L220.41 25.3164C220.417 24.5677 220.521 23.8809 220.723 23.2559C220.931 22.6309 221.217 22.0938 221.582 21.6445C221.953 21.1953 222.396 20.8503 222.91 20.6094C223.424 20.362 223.997 20.2383 224.629 20.2383C225.137 20.2383 225.596 20.3099 226.006 20.4531C226.423 20.5898 226.777 20.8145 227.07 21.127C227.37 21.4395 227.598 21.8464 227.754 22.3477C227.91 22.8424 227.988 23.4512 227.988 24.1738V31H225.625V24.1641C225.625 23.6562 225.55 23.2559 225.4 22.9629C225.257 22.6634 225.046 22.4518 224.766 22.3281C224.492 22.1979 224.15 22.1328 223.74 22.1328C223.337 22.1328 222.975 22.2174 222.656 22.3867C222.337 22.556 222.067 22.7871 221.846 23.0801C221.631 23.373 221.465 23.7116 221.348 24.0957C221.23 24.4798 221.172 24.89 221.172 25.3262ZM236.836 28.8125V16H239.199V31H237.061L236.836 28.8125ZM229.961 25.834V25.6289C229.961 24.8281 230.055 24.099 230.244 23.4414C230.433 22.7773 230.706 22.2077 231.064 21.7324C231.423 21.2507 231.859 20.8828 232.373 20.6289C232.887 20.3685 233.467 20.2383 234.111 20.2383C234.749 20.2383 235.309 20.362 235.791 20.6094C236.273 20.8568 236.683 21.2116 237.021 21.6738C237.36 22.1296 237.63 22.6764 237.832 23.3145C238.034 23.946 238.177 24.6491 238.262 25.4238V26.0781C238.177 26.8333 238.034 27.5234 237.832 28.1484C237.63 28.7734 237.36 29.3138 237.021 29.7695C236.683 30.2253 236.27 30.5768 235.781 30.8242C235.299 31.0716 234.736 31.1953 234.092 31.1953C233.454 31.1953 232.878 31.0618 232.363 30.7949C231.855 30.528 231.423 30.1536 231.064 29.6719C230.706 29.1901 230.433 28.6237 230.244 27.9727C230.055 27.3151 229.961 26.6022 229.961 25.834ZM232.314 25.6289V25.834C232.314 26.3158 232.357 26.765 232.441 27.1816C232.533 27.5983 232.673 27.9661 232.861 28.2852C233.05 28.5977 233.294 28.8451 233.594 29.0273C233.9 29.2031 234.264 29.291 234.688 29.291C235.221 29.291 235.661 29.1738 236.006 28.9395C236.351 28.7051 236.621 28.3893 236.816 27.9922C237.018 27.5885 237.155 27.1393 237.227 26.6445V24.877C237.188 24.4928 237.106 24.1348 236.982 23.8027C236.865 23.4707 236.706 23.181 236.504 22.9336C236.302 22.6797 236.051 22.4844 235.752 22.3477C235.459 22.2044 235.111 22.1328 234.707 22.1328C234.277 22.1328 233.913 22.224 233.613 22.4062C233.314 22.5885 233.066 22.8392 232.871 23.1582C232.682 23.4772 232.542 23.8483 232.451 24.2715C232.36 24.6947 232.314 25.1471 232.314 25.6289ZM241.211 25.834V25.6094C241.211 24.8477 241.322 24.1413 241.543 23.4902C241.764 22.8327 242.083 22.263 242.5 21.7812C242.923 21.293 243.438 20.9154 244.043 20.6484C244.655 20.375 245.345 20.2383 246.113 20.2383C246.888 20.2383 247.578 20.375 248.184 20.6484C248.796 20.9154 249.313 21.293 249.736 21.7812C250.16 22.263 250.482 22.8327 250.703 23.4902C250.924 24.1413 251.035 24.8477 251.035 25.6094V25.834C251.035 26.5957 250.924 27.3021 250.703 27.9531C250.482 28.6042 250.16 29.1738 249.736 29.6621C249.313 30.1439 248.799 30.5215 248.193 30.7949C247.588 31.0618 246.901 31.1953 246.133 31.1953C245.358 31.1953 244.665 31.0618 244.053 30.7949C243.447 30.5215 242.933 30.1439 242.51 29.6621C242.087 29.1738 241.764 28.6042 241.543 27.9531C241.322 27.3021 241.211 26.5957 241.211 25.834ZM243.564 25.6094V25.834C243.564 26.3092 243.613 26.7585 243.711 27.1816C243.809 27.6048 243.962 27.9759 244.17 28.2949C244.378 28.6139 244.645 28.8646 244.971 29.0469C245.296 29.2292 245.684 29.3203 246.133 29.3203C246.569 29.3203 246.947 29.2292 247.266 29.0469C247.591 28.8646 247.858 28.6139 248.066 28.2949C248.275 27.9759 248.428 27.6048 248.525 27.1816C248.63 26.7585 248.682 26.3092 248.682 25.834V25.6094C248.682 25.1406 248.63 24.6979 248.525 24.2812C248.428 23.8581 248.271 23.4837 248.057 23.1582C247.848 22.8327 247.581 22.5788 247.256 22.3965C246.937 22.2077 246.556 22.1133 246.113 22.1133C245.671 22.1133 245.286 22.2077 244.961 22.3965C244.642 22.5788 244.378 22.8327 244.17 23.1582C243.962 23.4837 243.809 23.8581 243.711 24.2812C243.613 24.6979 243.564 25.1406 243.564 25.6094Z" fill="#FEFEFE"/>
</svg>
