<svg width="280" height="48" viewBox="0 0 280 48" fill="none" xmlns="http://www.w3.org/2000/svg">
<g>
<rect width="280" height="48" rx="18" fill="currentColor"/>
<path d="M112.039 25.2969H113.992C113.93 26.0417 113.721 26.7057 113.367 27.2891C113.013 27.8672 112.516 28.3229 111.875 28.6562C111.234 28.9896 110.456 29.1562 109.539 29.1562C108.836 29.1562 108.203 29.0312 107.641 28.7812C107.078 28.526 106.596 28.1667 106.195 27.7031C105.794 27.2344 105.487 26.6693 105.273 26.0078C105.065 25.3464 104.961 24.6068 104.961 23.7891V22.8438C104.961 22.026 105.068 21.2865 105.281 20.625C105.5 19.9635 105.812 19.3984 106.219 18.9297C106.625 18.4557 107.112 18.0938 107.68 17.8438C108.253 17.5938 108.896 17.4688 109.609 17.4688C110.516 17.4688 111.281 17.6354 111.906 17.9688C112.531 18.3021 113.016 18.763 113.359 19.3516C113.708 19.9401 113.922 20.6146 114 21.375H112.047C111.995 20.8854 111.88 20.4661 111.703 20.1172C111.531 19.7682 111.276 19.5026 110.938 19.3203C110.599 19.1328 110.156 19.0391 109.609 19.0391C109.161 19.0391 108.771 19.1224 108.438 19.2891C108.104 19.4557 107.826 19.7005 107.602 20.0234C107.378 20.3464 107.208 20.7448 107.094 21.2188C106.984 21.6875 106.93 22.224 106.93 22.8281V23.7891C106.93 24.362 106.979 24.8828 107.078 25.3516C107.182 25.8151 107.339 26.2135 107.547 26.5469C107.76 26.8802 108.031 27.138 108.359 27.3203C108.688 27.5026 109.081 27.5938 109.539 27.5938C110.096 27.5938 110.547 27.5052 110.891 27.3281C111.24 27.151 111.503 26.8932 111.68 26.5547C111.862 26.2109 111.982 25.7917 112.039 25.2969ZM115.227 24.8672V24.6875C115.227 24.0781 115.315 23.513 115.492 22.9922C115.669 22.4661 115.924 22.0104 116.258 21.625C116.596 21.2344 117.008 20.9323 117.492 20.7188C117.982 20.5 118.534 20.3906 119.148 20.3906C119.768 20.3906 120.32 20.5 120.805 20.7188C121.294 20.9323 121.708 21.2344 122.047 21.625C122.385 22.0104 122.643 22.4661 122.82 22.9922C122.997 23.513 123.086 24.0781 123.086 24.6875V24.8672C123.086 25.4766 122.997 26.0417 122.82 26.5625C122.643 27.0833 122.385 27.5391 122.047 27.9297C121.708 28.3151 121.297 28.6172 120.812 28.8359C120.328 29.0495 119.779 29.1562 119.164 29.1562C118.544 29.1562 117.99 29.0495 117.5 28.8359C117.016 28.6172 116.604 28.3151 116.266 27.9297C115.927 27.5391 115.669 27.0833 115.492 26.5625C115.315 26.0417 115.227 25.4766 115.227 24.8672ZM117.109 24.6875V24.8672C117.109 25.2474 117.148 25.6068 117.227 25.9453C117.305 26.2839 117.427 26.5807 117.594 26.8359C117.76 27.0911 117.974 27.2917 118.234 27.4375C118.495 27.5833 118.805 27.6562 119.164 27.6562C119.513 27.6562 119.815 27.5833 120.07 27.4375C120.331 27.2917 120.544 27.0911 120.711 26.8359C120.878 26.5807 121 26.2839 121.078 25.9453C121.161 25.6068 121.203 25.2474 121.203 24.8672V24.6875C121.203 24.3125 121.161 23.9583 121.078 23.625C121 23.2865 120.875 22.987 120.703 22.7266C120.536 22.4661 120.323 22.263 120.062 22.1172C119.807 21.9661 119.503 21.8906 119.148 21.8906C118.794 21.8906 118.487 21.9661 118.227 22.1172C117.971 22.263 117.76 22.4661 117.594 22.7266C117.427 22.987 117.305 23.2865 117.227 23.625C117.148 23.9583 117.109 24.3125 117.109 24.6875ZM126.531 22.3516V29H124.648V20.5469H126.422L126.531 22.3516ZM126.195 24.4609L125.586 24.4531C125.591 23.8542 125.674 23.3047 125.836 22.8047C126.003 22.3047 126.232 21.875 126.523 21.5156C126.82 21.1562 127.174 20.8802 127.586 20.6875C127.997 20.4896 128.456 20.3906 128.961 20.3906C129.367 20.3906 129.734 20.4479 130.062 20.5625C130.396 20.6719 130.68 20.8516 130.914 21.1016C131.154 21.3516 131.336 21.6771 131.461 22.0781C131.586 22.474 131.648 22.9609 131.648 23.5391V29H129.758V23.5312C129.758 23.125 129.698 22.8047 129.578 22.5703C129.464 22.3307 129.294 22.1615 129.07 22.0625C128.852 21.9583 128.578 21.9062 128.25 21.9062C127.927 21.9062 127.638 21.974 127.383 22.1094C127.128 22.2448 126.911 22.4297 126.734 22.6641C126.562 22.8984 126.43 23.1693 126.336 23.4766C126.242 23.7839 126.195 24.112 126.195 24.4609ZM135.992 29H134.102V20C134.102 19.3177 134.237 18.7422 134.508 18.2734C134.784 17.8047 135.177 17.4479 135.688 17.2031C136.203 16.9583 136.815 16.8359 137.523 16.8359C137.94 16.8359 138.341 16.8802 138.727 16.9688C139.117 17.0573 139.521 17.1693 139.938 17.3047L139.648 18.8359C139.383 18.7474 139.089 18.6641 138.766 18.5859C138.443 18.5026 138.07 18.4609 137.648 18.4609C137.081 18.4609 136.661 18.5911 136.391 18.8516C136.125 19.1068 135.992 19.4896 135.992 20V29ZM137.688 20.5469V21.9219H132.805V20.5469H137.688ZM140.828 20.5469V29H138.945V20.5469H140.828ZM144.82 22.1562V29H142.938V20.5469H144.734L144.82 22.1562ZM147.406 20.4922L147.391 22.2422C147.276 22.2214 147.151 22.2057 147.016 22.1953C146.885 22.1849 146.755 22.1797 146.625 22.1797C146.302 22.1797 146.018 22.2266 145.773 22.3203C145.529 22.4089 145.323 22.5391 145.156 22.7109C144.995 22.8776 144.87 23.0807 144.781 23.3203C144.693 23.5599 144.641 23.8281 144.625 24.125L144.195 24.1562C144.195 23.625 144.247 23.1328 144.352 22.6797C144.456 22.2266 144.612 21.8281 144.82 21.4844C145.034 21.1406 145.299 20.8724 145.617 20.6797C145.94 20.487 146.312 20.3906 146.734 20.3906C146.849 20.3906 146.971 20.401 147.102 20.4219C147.237 20.4427 147.339 20.4661 147.406 20.4922ZM150.469 22.2656V29H148.586V20.5469H150.359L150.469 22.2656ZM150.164 24.4609L149.523 24.4531C149.523 23.8698 149.596 23.3307 149.742 22.8359C149.888 22.3411 150.102 21.9115 150.383 21.5469C150.664 21.1771 151.013 20.8932 151.43 20.6953C151.852 20.4922 152.339 20.3906 152.891 20.3906C153.276 20.3906 153.628 20.4479 153.945 20.5625C154.268 20.6719 154.547 20.8464 154.781 21.0859C155.021 21.3255 155.203 21.6328 155.328 22.0078C155.458 22.3828 155.523 22.8359 155.523 23.3672V29H153.641V23.5312C153.641 23.1198 153.578 22.7969 153.453 22.5625C153.333 22.3281 153.159 22.1615 152.93 22.0625C152.706 21.9583 152.438 21.9062 152.125 21.9062C151.771 21.9062 151.469 21.974 151.219 22.1094C150.974 22.2448 150.773 22.4297 150.617 22.6641C150.461 22.8984 150.346 23.1693 150.273 23.4766C150.201 23.7839 150.164 24.112 150.164 24.4609ZM155.406 23.9609L154.523 24.1562C154.523 23.6458 154.594 23.1641 154.734 22.7109C154.88 22.2526 155.091 21.8516 155.367 21.5078C155.648 21.1589 155.995 20.8854 156.406 20.6875C156.818 20.4896 157.289 20.3906 157.82 20.3906C158.253 20.3906 158.638 20.4505 158.977 20.5703C159.32 20.6849 159.612 20.8672 159.852 21.1172C160.091 21.3672 160.273 21.6927 160.398 22.0938C160.523 22.4896 160.586 22.9688 160.586 23.5312V29H158.695V23.5234C158.695 23.0964 158.633 22.7656 158.508 22.5312C158.388 22.2969 158.216 22.1354 157.992 22.0469C157.768 21.9531 157.5 21.9062 157.188 21.9062C156.896 21.9062 156.638 21.9609 156.414 22.0703C156.195 22.1745 156.01 22.3229 155.859 22.5156C155.708 22.7031 155.594 22.9193 155.516 23.1641C155.443 23.4089 155.406 23.6745 155.406 23.9609ZM167.289 27.3047V23.2734C167.289 22.9714 167.234 22.7109 167.125 22.4922C167.016 22.2734 166.849 22.1042 166.625 21.9844C166.406 21.8646 166.13 21.8047 165.797 21.8047C165.49 21.8047 165.224 21.8568 165 21.9609C164.776 22.0651 164.602 22.2057 164.477 22.3828C164.352 22.5599 164.289 22.7604 164.289 22.9844H162.414C162.414 22.651 162.495 22.3281 162.656 22.0156C162.818 21.7031 163.052 21.4245 163.359 21.1797C163.667 20.9349 164.034 20.7422 164.461 20.6016C164.888 20.4609 165.367 20.3906 165.898 20.3906C166.534 20.3906 167.096 20.4974 167.586 20.7109C168.081 20.9245 168.469 21.2474 168.75 21.6797C169.036 22.1068 169.18 22.6432 169.18 23.2891V27.0469C169.18 27.4323 169.206 27.7786 169.258 28.0859C169.315 28.388 169.396 28.651 169.5 28.875V29H167.57C167.482 28.7969 167.411 28.5391 167.359 28.2266C167.312 27.9089 167.289 27.6016 167.289 27.3047ZM167.562 23.8594L167.578 25.0234H166.227C165.878 25.0234 165.57 25.0573 165.305 25.125C165.039 25.1875 164.818 25.2812 164.641 25.4062C164.464 25.5312 164.331 25.6823 164.242 25.8594C164.154 26.0365 164.109 26.237 164.109 26.4609C164.109 26.6849 164.161 26.8906 164.266 27.0781C164.37 27.2604 164.521 27.4036 164.719 27.5078C164.922 27.612 165.167 27.6641 165.453 27.6641C165.839 27.6641 166.174 27.5859 166.461 27.4297C166.753 27.2682 166.982 27.0729 167.148 26.8438C167.315 26.6094 167.404 26.388 167.414 26.1797L168.023 27.0156C167.961 27.2292 167.854 27.4583 167.703 27.7031C167.552 27.9479 167.354 28.1823 167.109 28.4062C166.87 28.625 166.581 28.8047 166.242 28.9453C165.909 29.0859 165.523 29.1562 165.086 29.1562C164.534 29.1562 164.042 29.0469 163.609 28.8281C163.177 28.6042 162.839 28.3047 162.594 27.9297C162.349 27.5495 162.227 27.1198 162.227 26.6406C162.227 26.1927 162.31 25.7969 162.477 25.4531C162.648 25.1042 162.898 24.8125 163.227 24.5781C163.56 24.3438 163.966 24.1667 164.445 24.0469C164.924 23.9219 165.471 23.8594 166.086 23.8594H167.562ZM173.039 22.1562V29H171.156V20.5469H172.953L173.039 22.1562ZM175.625 20.4922L175.609 22.2422C175.495 22.2214 175.37 22.2057 175.234 22.1953C175.104 22.1849 174.974 22.1797 174.844 22.1797C174.521 22.1797 174.237 22.2266 173.992 22.3203C173.747 22.4089 173.542 22.5391 173.375 22.7109C173.214 22.8776 173.089 23.0807 173 23.3203C172.911 23.5599 172.859 23.8281 172.844 24.125L172.414 24.1562C172.414 23.625 172.466 23.1328 172.57 22.6797C172.674 22.2266 172.831 21.8281 173.039 21.4844C173.253 21.1406 173.518 20.8724 173.836 20.6797C174.159 20.487 174.531 20.3906 174.953 20.3906C175.068 20.3906 175.19 20.401 175.32 20.4219C175.456 20.4427 175.557 20.4661 175.625 20.4922Z" fill="#FEFEFE"/>
</g>
</svg>
