<svg class="svg-button" width="292" height="48" viewBox="0 0 292 48" fill="none" xmlns="http://www.w3.org/2000/svg">
<rect width="292" height="48" rx="18" fill="currentColor" />
<path d="M72.5 24.5C75.2614 24.5 77.5 22.2614 77.5 19.5C77.5 16.7386 75.2614 14.5 72.5 14.5C69.7386 14.5 67.5 16.7386 67.5 19.5C67.5 22.2614 69.7386 24.5 72.5 24.5Z" stroke="#FEFEFE" stroke-width="2"/>
<path d="M77.5001 34.5H65.7661C65.4824 34.5001 65.2021 34.4398 64.9435 34.3232C64.685 34.2066 64.4542 34.0364 64.2664 33.8238C64.0787 33.6112 63.9383 33.3611 63.8547 33.0901C63.771 32.8191 63.7459 32.5334 63.7811 32.252L64.1711 29.128C64.2618 28.4022 64.6145 27.7346 65.1629 27.2506C65.7113 26.7667 66.4176 26.4997 67.1491 26.5H67.5001M79.5001 26.5V30.5M77.5001 28.5H81.5001" stroke="#FEFEFE" stroke-width="2" stroke-linecap="round" stroke-linejoin="round"/>
<path d="M100.467 16.7812V31H98.0156V16.7812H100.467ZM106.268 23.002V24.9453H99.8418V23.002H106.268ZM107.078 16.7812V18.7344H99.8418V16.7812H107.078ZM114.422 28.8809V23.8418C114.422 23.4642 114.354 23.1387 114.217 22.8652C114.08 22.5918 113.872 22.3802 113.592 22.2305C113.318 22.0807 112.973 22.0059 112.557 22.0059C112.173 22.0059 111.84 22.071 111.561 22.2012C111.281 22.3314 111.062 22.5072 110.906 22.7285C110.75 22.9499 110.672 23.2005 110.672 23.4805H108.328C108.328 23.0638 108.429 22.6602 108.631 22.2695C108.833 21.8789 109.126 21.5306 109.51 21.2246C109.894 20.9186 110.353 20.6777 110.887 20.502C111.421 20.3262 112.02 20.2383 112.684 20.2383C113.478 20.2383 114.181 20.3717 114.793 20.6387C115.411 20.9056 115.896 21.3092 116.248 21.8496C116.606 22.3835 116.785 23.054 116.785 23.8613V28.5586C116.785 29.0404 116.818 29.4733 116.883 29.8574C116.954 30.235 117.055 30.5638 117.186 30.8438V31H114.773C114.663 30.7461 114.575 30.4238 114.51 30.0332C114.451 29.6361 114.422 29.252 114.422 28.8809ZM114.764 24.5742L114.783 26.0293H113.094C112.658 26.0293 112.273 26.0716 111.941 26.1562C111.609 26.2344 111.333 26.3516 111.111 26.5078C110.89 26.6641 110.724 26.8529 110.613 27.0742C110.503 27.2956 110.447 27.5462 110.447 27.8262C110.447 28.1061 110.512 28.3633 110.643 28.5977C110.773 28.8255 110.962 29.0046 111.209 29.1348C111.463 29.265 111.769 29.3301 112.127 29.3301C112.609 29.3301 113.029 29.2324 113.387 29.0371C113.751 28.8353 114.038 28.5911 114.246 28.3047C114.454 28.0117 114.565 27.735 114.578 27.4746L115.34 28.5195C115.262 28.7865 115.128 29.0729 114.939 29.3789C114.751 29.6849 114.503 29.9779 114.197 30.2578C113.898 30.5312 113.536 30.7559 113.113 30.9316C112.697 31.1074 112.215 31.1953 111.668 31.1953C110.978 31.1953 110.363 31.0586 109.822 30.7852C109.282 30.5052 108.859 30.1309 108.553 29.6621C108.247 29.1868 108.094 28.6497 108.094 28.0508C108.094 27.4909 108.198 26.9961 108.406 26.5664C108.621 26.1302 108.934 25.7656 109.344 25.4727C109.76 25.1797 110.268 24.9583 110.867 24.8086C111.466 24.6523 112.15 24.5742 112.918 24.5742H114.764ZM127.42 29.125V31H119.549V29.125H127.42ZM127.205 21.8984L120.35 31H118.826V29.4863L125.643 20.4336H127.205V21.8984ZM126.297 20.4336V22.3086H118.943V20.4336H126.297ZM133.807 31.1953C133.025 31.1953 132.319 31.0684 131.688 30.8145C131.062 30.554 130.529 30.1927 130.086 29.7305C129.65 29.2682 129.314 28.7246 129.08 28.0996C128.846 27.4746 128.729 26.8008 128.729 26.0781V25.6875C128.729 24.8607 128.849 24.112 129.09 23.4414C129.331 22.7708 129.666 22.1979 130.096 21.7227C130.525 21.2409 131.033 20.873 131.619 20.6191C132.205 20.3652 132.84 20.2383 133.523 20.2383C134.279 20.2383 134.939 20.3652 135.506 20.6191C136.072 20.873 136.541 21.2311 136.912 21.6934C137.29 22.1491 137.57 22.6927 137.752 23.3242C137.941 23.9557 138.035 24.6523 138.035 25.4141V26.4199H129.871V24.7305H135.711V24.5449C135.698 24.1217 135.613 23.7246 135.457 23.3535C135.307 22.9824 135.076 22.6829 134.764 22.4551C134.451 22.2272 134.035 22.1133 133.514 22.1133C133.123 22.1133 132.775 22.1979 132.469 22.3672C132.169 22.5299 131.919 22.7676 131.717 23.0801C131.515 23.3926 131.359 23.7702 131.248 24.2129C131.144 24.6491 131.092 25.1406 131.092 25.6875V26.0781C131.092 26.5404 131.154 26.9701 131.277 27.3672C131.408 27.7578 131.596 28.0996 131.844 28.3926C132.091 28.6855 132.391 28.9167 132.742 29.0859C133.094 29.2487 133.494 29.3301 133.943 29.3301C134.51 29.3301 135.014 29.2161 135.457 28.9883C135.9 28.7604 136.284 28.4382 136.609 28.0215L137.85 29.2227C137.622 29.5547 137.326 29.8737 136.961 30.1797C136.596 30.4792 136.15 30.7233 135.623 30.9121C135.102 31.1009 134.497 31.1953 133.807 31.1953ZM142.234 22.4453V31H139.881V20.4336H142.127L142.234 22.4453ZM145.467 20.3652L145.447 22.5527C145.304 22.5267 145.148 22.5072 144.979 22.4941C144.816 22.4811 144.653 22.4746 144.49 22.4746C144.087 22.4746 143.732 22.5332 143.426 22.6504C143.12 22.7611 142.863 22.9238 142.654 23.1387C142.452 23.347 142.296 23.6009 142.186 23.9004C142.075 24.1999 142.01 24.5352 141.99 24.9062L141.453 24.9453C141.453 24.2812 141.518 23.666 141.648 23.0996C141.779 22.5332 141.974 22.0352 142.234 21.6055C142.501 21.1758 142.833 20.8405 143.23 20.5996C143.634 20.3587 144.1 20.2383 144.627 20.2383C144.77 20.2383 144.923 20.2513 145.086 20.2773C145.255 20.3034 145.382 20.3327 145.467 20.3652ZM154.441 20.4336V31H152.078V20.4336H154.441ZM151.922 17.6602C151.922 17.3021 152.039 17.0059 152.273 16.7715C152.514 16.5306 152.846 16.4102 153.27 16.4102C153.686 16.4102 154.015 16.5306 154.256 16.7715C154.497 17.0059 154.617 17.3021 154.617 17.6602C154.617 18.0117 154.497 18.3047 154.256 18.5391C154.015 18.7734 153.686 18.8906 153.27 18.8906C152.846 18.8906 152.514 18.7734 152.273 18.5391C152.039 18.3047 151.922 18.0117 151.922 17.6602ZM159.354 22.6895V31H157V20.4336H159.217L159.354 22.6895ZM158.934 25.3262L158.172 25.3164C158.178 24.5677 158.283 23.8809 158.484 23.2559C158.693 22.6309 158.979 22.0938 159.344 21.6445C159.715 21.1953 160.158 20.8503 160.672 20.6094C161.186 20.362 161.759 20.2383 162.391 20.2383C162.898 20.2383 163.357 20.3099 163.768 20.4531C164.184 20.5898 164.539 20.8145 164.832 21.127C165.132 21.4395 165.359 21.8464 165.516 22.3477C165.672 22.8424 165.75 23.4512 165.75 24.1738V31H163.387V24.1641C163.387 23.6562 163.312 23.2559 163.162 22.9629C163.019 22.6634 162.807 22.4518 162.527 22.3281C162.254 22.1979 161.912 22.1328 161.502 22.1328C161.098 22.1328 160.737 22.2174 160.418 22.3867C160.099 22.556 159.829 22.7871 159.607 23.0801C159.393 23.373 159.227 23.7116 159.109 24.0957C158.992 24.4798 158.934 24.89 158.934 25.3262ZM174.08 28.1387C174.08 27.9043 174.021 27.6927 173.904 27.5039C173.787 27.3086 173.562 27.1328 173.23 26.9766C172.905 26.8203 172.423 26.6771 171.785 26.5469C171.225 26.4232 170.711 26.2767 170.242 26.1074C169.78 25.9316 169.383 25.7201 169.051 25.4727C168.719 25.2253 168.462 24.9323 168.279 24.5938C168.097 24.2552 168.006 23.8646 168.006 23.4219C168.006 22.9922 168.1 22.5853 168.289 22.2012C168.478 21.8171 168.748 21.4785 169.1 21.1855C169.451 20.8926 169.878 20.6615 170.379 20.4922C170.887 20.3229 171.453 20.2383 172.078 20.2383C172.964 20.2383 173.722 20.388 174.354 20.6875C174.992 20.9805 175.48 21.3809 175.818 21.8887C176.157 22.39 176.326 22.9564 176.326 23.5879H173.973C173.973 23.3079 173.901 23.0475 173.758 22.8066C173.621 22.5592 173.413 22.3607 173.133 22.2109C172.853 22.0547 172.501 21.9766 172.078 21.9766C171.674 21.9766 171.339 22.0417 171.072 22.1719C170.812 22.2956 170.617 22.4583 170.486 22.6602C170.363 22.862 170.301 23.0833 170.301 23.3242C170.301 23.5 170.333 23.6595 170.398 23.8027C170.47 23.9395 170.587 24.0664 170.75 24.1836C170.913 24.2943 171.134 24.3984 171.414 24.4961C171.701 24.5938 172.059 24.6882 172.488 24.7793C173.296 24.9486 173.989 25.1667 174.568 25.4336C175.154 25.694 175.604 26.0326 175.916 26.4492C176.229 26.8594 176.385 27.3802 176.385 28.0117C176.385 28.4805 176.284 28.9102 176.082 29.3008C175.887 29.6849 175.6 30.0202 175.223 30.3066C174.845 30.5866 174.393 30.8047 173.865 30.9609C173.344 31.1172 172.758 31.1953 172.107 31.1953C171.15 31.1953 170.34 31.026 169.676 30.6875C169.012 30.3424 168.507 29.903 168.162 29.3691C167.824 28.8288 167.654 28.2689 167.654 27.6895H169.93C169.956 28.1257 170.076 28.474 170.291 28.7344C170.512 28.9883 170.786 29.1738 171.111 29.291C171.443 29.4017 171.785 29.457 172.137 29.457C172.56 29.457 172.915 29.4017 173.201 29.291C173.488 29.1738 173.706 29.0176 173.855 28.8223C174.005 28.6204 174.08 28.3926 174.08 28.1387ZM182.762 29.3203C183.146 29.3203 183.491 29.2454 183.797 29.0957C184.109 28.9395 184.36 28.7246 184.549 28.4512C184.744 28.1777 184.852 27.862 184.871 27.5039H187.088C187.075 28.1875 186.873 28.8092 186.482 29.3691C186.092 29.929 185.574 30.375 184.93 30.707C184.285 31.0326 183.572 31.1953 182.791 31.1953C181.984 31.1953 181.281 31.0586 180.682 30.7852C180.083 30.5052 179.585 30.1211 179.188 29.6328C178.79 29.1445 178.491 28.5814 178.289 27.9434C178.094 27.3053 177.996 26.6217 177.996 25.8926V25.5508C177.996 24.8216 178.094 24.138 178.289 23.5C178.491 22.8555 178.79 22.2891 179.188 21.8008C179.585 21.3125 180.083 20.9316 180.682 20.6582C181.281 20.3783 181.98 20.2383 182.781 20.2383C183.628 20.2383 184.37 20.4076 185.008 20.7461C185.646 21.0781 186.147 21.5436 186.512 22.1426C186.883 22.735 187.075 23.4251 187.088 24.2129H184.871C184.852 23.8223 184.754 23.4707 184.578 23.1582C184.409 22.8392 184.168 22.5853 183.855 22.3965C183.549 22.2077 183.182 22.1133 182.752 22.1133C182.277 22.1133 181.883 22.2109 181.57 22.4062C181.258 22.5951 181.014 22.8555 180.838 23.1875C180.662 23.513 180.535 23.8809 180.457 24.291C180.385 24.6947 180.35 25.1146 180.35 25.5508V25.8926C180.35 26.3288 180.385 26.752 180.457 27.1621C180.529 27.5723 180.652 27.9401 180.828 28.2656C181.01 28.5846 181.258 28.8418 181.57 29.0371C181.883 29.2259 182.28 29.3203 182.762 29.3203ZM191.258 22.4453V31H188.904V20.4336H191.15L191.258 22.4453ZM194.49 20.3652L194.471 22.5527C194.327 22.5267 194.171 22.5072 194.002 22.4941C193.839 22.4811 193.676 22.4746 193.514 22.4746C193.11 22.4746 192.755 22.5332 192.449 22.6504C192.143 22.7611 191.886 22.9238 191.678 23.1387C191.476 23.347 191.32 23.6009 191.209 23.9004C191.098 24.1999 191.033 24.5352 191.014 24.9062L190.477 24.9453C190.477 24.2812 190.542 23.666 190.672 23.0996C190.802 22.5332 190.997 22.0352 191.258 21.6055C191.525 21.1758 191.857 20.8405 192.254 20.5996C192.658 20.3587 193.123 20.2383 193.65 20.2383C193.794 20.2383 193.947 20.2513 194.109 20.2773C194.279 20.3034 194.406 20.3327 194.49 20.3652ZM198.484 20.4336V31H196.121V20.4336H198.484ZM195.965 17.6602C195.965 17.3021 196.082 17.0059 196.316 16.7715C196.557 16.5306 196.889 16.4102 197.312 16.4102C197.729 16.4102 198.058 16.5306 198.299 16.7715C198.54 17.0059 198.66 17.3021 198.66 17.6602C198.66 18.0117 198.54 18.3047 198.299 18.5391C198.058 18.7734 197.729 18.8906 197.312 18.8906C196.889 18.8906 196.557 18.7734 196.316 18.5391C196.082 18.3047 195.965 18.0117 195.965 17.6602ZM205.379 29.3203C205.763 29.3203 206.108 29.2454 206.414 29.0957C206.727 28.9395 206.977 28.7246 207.166 28.4512C207.361 28.1777 207.469 27.862 207.488 27.5039H209.705C209.692 28.1875 209.49 28.8092 209.1 29.3691C208.709 29.929 208.191 30.375 207.547 30.707C206.902 31.0326 206.189 31.1953 205.408 31.1953C204.601 31.1953 203.898 31.0586 203.299 30.7852C202.7 30.5052 202.202 30.1211 201.805 29.6328C201.408 29.1445 201.108 28.5814 200.906 27.9434C200.711 27.3053 200.613 26.6217 200.613 25.8926V25.5508C200.613 24.8216 200.711 24.138 200.906 23.5C201.108 22.8555 201.408 22.2891 201.805 21.8008C202.202 21.3125 202.7 20.9316 203.299 20.6582C203.898 20.3783 204.598 20.2383 205.398 20.2383C206.245 20.2383 206.987 20.4076 207.625 20.7461C208.263 21.0781 208.764 21.5436 209.129 22.1426C209.5 22.735 209.692 23.4251 209.705 24.2129H207.488C207.469 23.8223 207.371 23.4707 207.195 23.1582C207.026 22.8392 206.785 22.5853 206.473 22.3965C206.167 22.2077 205.799 22.1133 205.369 22.1133C204.894 22.1133 204.5 22.2109 204.188 22.4062C203.875 22.5951 203.631 22.8555 203.455 23.1875C203.279 23.513 203.152 23.8809 203.074 24.291C203.003 24.6947 202.967 25.1146 202.967 25.5508V25.8926C202.967 26.3288 203.003 26.752 203.074 27.1621C203.146 27.5723 203.27 27.9401 203.445 28.2656C203.628 28.5846 203.875 28.8418 204.188 29.0371C204.5 29.2259 204.897 29.3203 205.379 29.3203ZM204.344 31.0195H206.092L205.975 31.5664C206.346 31.6315 206.684 31.7878 206.99 32.0352C207.303 32.2891 207.459 32.696 207.459 33.2559C207.459 33.5879 207.391 33.8874 207.254 34.1543C207.117 34.4212 206.912 34.6491 206.639 34.8379C206.372 35.0332 206.036 35.1829 205.633 35.2871C205.236 35.3913 204.773 35.4434 204.246 35.4434L204.178 34.1152C204.432 34.1152 204.66 34.0827 204.861 34.0176C205.063 33.959 205.223 33.8646 205.34 33.7344C205.464 33.6042 205.525 33.4349 205.525 33.2266C205.525 33.0247 205.473 32.8685 205.369 32.7578C205.265 32.6471 205.102 32.5625 204.881 32.5039C204.666 32.4453 204.386 32.403 204.041 32.377L204.344 31.0195ZM217.469 28.8809V23.8418C217.469 23.4642 217.4 23.1387 217.264 22.8652C217.127 22.5918 216.919 22.3802 216.639 22.2305C216.365 22.0807 216.02 22.0059 215.604 22.0059C215.219 22.0059 214.887 22.071 214.607 22.2012C214.327 22.3314 214.109 22.5072 213.953 22.7285C213.797 22.9499 213.719 23.2005 213.719 23.4805H211.375C211.375 23.0638 211.476 22.6602 211.678 22.2695C211.88 21.8789 212.173 21.5306 212.557 21.2246C212.941 20.9186 213.4 20.6777 213.934 20.502C214.467 20.3262 215.066 20.2383 215.73 20.2383C216.525 20.2383 217.228 20.3717 217.84 20.6387C218.458 20.9056 218.943 21.3092 219.295 21.8496C219.653 22.3835 219.832 23.054 219.832 23.8613V28.5586C219.832 29.0404 219.865 29.4733 219.93 29.8574C220.001 30.235 220.102 30.5638 220.232 30.8438V31H217.82C217.71 30.7461 217.622 30.4238 217.557 30.0332C217.498 29.6361 217.469 29.252 217.469 28.8809ZM217.811 24.5742L217.83 26.0293H216.141C215.704 26.0293 215.32 26.0716 214.988 26.1562C214.656 26.2344 214.38 26.3516 214.158 26.5078C213.937 26.6641 213.771 26.8529 213.66 27.0742C213.549 27.2956 213.494 27.5462 213.494 27.8262C213.494 28.1061 213.559 28.3633 213.689 28.5977C213.82 28.8255 214.008 29.0046 214.256 29.1348C214.51 29.265 214.816 29.3301 215.174 29.3301C215.656 29.3301 216.076 29.2324 216.434 29.0371C216.798 28.8353 217.085 28.5911 217.293 28.3047C217.501 28.0117 217.612 27.735 217.625 27.4746L218.387 28.5195C218.309 28.7865 218.175 29.0729 217.986 29.3789C217.798 29.6849 217.55 29.9779 217.244 30.2578C216.945 30.5312 216.583 30.7559 216.16 30.9316C215.743 31.1074 215.262 31.1953 214.715 31.1953C214.025 31.1953 213.41 31.0586 212.869 30.7852C212.329 30.5052 211.906 30.1309 211.6 29.6621C211.294 29.1868 211.141 28.6497 211.141 28.0508C211.141 27.4909 211.245 26.9961 211.453 26.5664C211.668 26.1302 211.98 25.7656 212.391 25.4727C212.807 25.1797 213.315 24.9583 213.914 24.8086C214.513 24.6523 215.197 24.5742 215.965 24.5742H217.811ZM217.957 16.1172L219.393 16.2246C219.393 16.6999 219.298 17.1263 219.109 17.5039C218.921 17.875 218.663 18.168 218.338 18.3828C218.012 18.5977 217.645 18.7051 217.234 18.7051C216.915 18.7051 216.645 18.6595 216.424 18.5684C216.202 18.4772 216.001 18.373 215.818 18.2559C215.636 18.1387 215.447 18.0378 215.252 17.9531C215.063 17.862 214.839 17.8164 214.578 17.8164C214.331 17.8164 214.119 17.9076 213.943 18.0898C213.774 18.2721 213.689 18.5163 213.689 18.8223L212.244 18.7441C212.244 18.2754 212.339 17.8522 212.527 17.4746C212.716 17.097 212.973 16.7975 213.299 16.5762C213.624 16.3548 213.992 16.2441 214.402 16.2441C214.669 16.2441 214.91 16.2897 215.125 16.3809C215.346 16.4655 215.555 16.5664 215.75 16.6836C215.952 16.8008 216.157 16.9049 216.365 16.9961C216.574 17.0872 216.805 17.1328 217.059 17.1328C217.306 17.1328 217.518 17.0384 217.693 16.8496C217.869 16.6608 217.957 16.4167 217.957 16.1172ZM221.844 25.834V25.6094C221.844 24.8477 221.954 24.1413 222.176 23.4902C222.397 22.8327 222.716 22.263 223.133 21.7812C223.556 21.293 224.07 20.9154 224.676 20.6484C225.288 20.375 225.978 20.2383 226.746 20.2383C227.521 20.2383 228.211 20.375 228.816 20.6484C229.428 20.9154 229.946 21.293 230.369 21.7812C230.792 22.263 231.115 22.8327 231.336 23.4902C231.557 24.1413 231.668 24.8477 231.668 25.6094V25.834C231.668 26.5957 231.557 27.3021 231.336 27.9531C231.115 28.6042 230.792 29.1738 230.369 29.6621C229.946 30.1439 229.432 30.5215 228.826 30.7949C228.221 31.0618 227.534 31.1953 226.766 31.1953C225.991 31.1953 225.298 31.0618 224.686 30.7949C224.08 30.5215 223.566 30.1439 223.143 29.6621C222.719 29.1738 222.397 28.6042 222.176 27.9531C221.954 27.3021 221.844 26.5957 221.844 25.834ZM224.197 25.6094V25.834C224.197 26.3092 224.246 26.7585 224.344 27.1816C224.441 27.6048 224.594 27.9759 224.803 28.2949C225.011 28.6139 225.278 28.8646 225.604 29.0469C225.929 29.2292 226.316 29.3203 226.766 29.3203C227.202 29.3203 227.579 29.2292 227.898 29.0469C228.224 28.8646 228.491 28.6139 228.699 28.2949C228.908 27.9759 229.061 27.6048 229.158 27.1816C229.262 26.7585 229.314 26.3092 229.314 25.834V25.6094C229.314 25.1406 229.262 24.6979 229.158 24.2812C229.061 23.8581 228.904 23.4837 228.689 23.1582C228.481 22.8327 228.214 22.5788 227.889 22.3965C227.57 22.2077 227.189 22.1133 226.746 22.1133C226.303 22.1133 225.919 22.2077 225.594 22.3965C225.275 22.5788 225.011 22.8327 224.803 23.1582C224.594 23.4837 224.441 23.8581 224.344 24.2812C224.246 24.6979 224.197 25.1406 224.197 25.6094Z" fill="#FEFEFE"/>
<defs>
<linearGradient id="paint0_linear_239_2134" x1="0" y1="24" x2="292" y2="24" gradientUnits="userSpaceOnUse">
<stop stop-color="#EBD094"/>
<stop stop-color="#212121"/>
</linearGradient>
</defs>
</svg>
