<svg class="menor" width="292" height="48" viewBox="0 0 292 48" fill="none" xmlns="http://www.w3.org/2000/svg">
<rect width="292" height="48" rx="18" fill="currentColor"/>
<path d="M50.5 27.5V15.5M50.5 27.5L46.5 23.5M50.5 27.5L54.5 23.5M40.5 29.5L41.121 31.985C41.2292 32.4177 41.4788 32.8018 41.8303 33.0763C42.1818 33.3508 42.615 33.4999 43.061 33.5H57.938C58.384 33.4999 58.8172 33.3508 59.1687 33.0763C59.5202 32.8018 59.7698 32.4177 59.878 31.985L60.5 29.5" stroke="#FEFEFE" stroke-width="2" stroke-linecap="round" stroke-linejoin="round"/>
<path d="M81.3945 25.6973H77.6934V23.7539H81.3945C82.0391 23.7539 82.5599 23.6497 82.957 23.4414C83.3542 23.2331 83.6439 22.9466 83.8262 22.582C84.015 22.2109 84.1094 21.7878 84.1094 21.3125C84.1094 20.8633 84.015 20.4434 83.8262 20.0527C83.6439 19.6556 83.3542 19.3366 82.957 19.0957C82.5599 18.8548 82.0391 18.7344 81.3945 18.7344H78.4453V31H75.9941V16.7812H81.3945C82.4948 16.7812 83.429 16.9766 84.1973 17.3672C84.972 17.7513 85.5612 18.2852 85.9648 18.9688C86.3685 19.6458 86.5703 20.4206 86.5703 21.293C86.5703 22.2109 86.3685 22.9987 85.9648 23.6562C85.5612 24.3138 84.972 24.8184 84.1973 25.1699C83.429 25.5215 82.4948 25.6973 81.3945 25.6973ZM94.373 28.8809V23.8418C94.373 23.4642 94.3047 23.1387 94.168 22.8652C94.0312 22.5918 93.8229 22.3802 93.543 22.2305C93.2695 22.0807 92.9245 22.0059 92.5078 22.0059C92.1237 22.0059 91.7917 22.071 91.5117 22.2012C91.2318 22.3314 91.0137 22.5072 90.8574 22.7285C90.7012 22.9499 90.623 23.2005 90.623 23.4805H88.2793C88.2793 23.0638 88.3802 22.6602 88.582 22.2695C88.7839 21.8789 89.0768 21.5306 89.4609 21.2246C89.8451 20.9186 90.304 20.6777 90.8379 20.502C91.3717 20.3262 91.9707 20.2383 92.6348 20.2383C93.429 20.2383 94.1322 20.3717 94.7441 20.6387C95.3626 20.9056 95.8477 21.3092 96.1992 21.8496C96.5573 22.3835 96.7363 23.054 96.7363 23.8613V28.5586C96.7363 29.0404 96.7689 29.4733 96.834 29.8574C96.9056 30.235 97.0065 30.5638 97.1367 30.8438V31H94.7246C94.6139 30.7461 94.526 30.4238 94.4609 30.0332C94.4023 29.6361 94.373 29.252 94.373 28.8809ZM94.7148 24.5742L94.7344 26.0293H93.0449C92.6087 26.0293 92.2246 26.0716 91.8926 26.1562C91.5605 26.2344 91.2839 26.3516 91.0625 26.5078C90.8411 26.6641 90.6751 26.8529 90.5645 27.0742C90.4538 27.2956 90.3984 27.5462 90.3984 27.8262C90.3984 28.1061 90.4635 28.3633 90.5938 28.5977C90.724 28.8255 90.9128 29.0046 91.1602 29.1348C91.4141 29.265 91.7201 29.3301 92.0781 29.3301C92.5599 29.3301 92.9798 29.2324 93.3379 29.0371C93.7025 28.8353 93.9889 28.5911 94.1973 28.3047C94.4056 28.0117 94.5163 27.735 94.5293 27.4746L95.291 28.5195C95.2129 28.7865 95.0794 29.0729 94.8906 29.3789C94.7018 29.6849 94.4544 29.9779 94.1484 30.2578C93.849 30.5312 93.4876 30.7559 93.0645 30.9316C92.6478 31.1074 92.166 31.1953 91.6191 31.1953C90.929 31.1953 90.3138 31.0586 89.7734 30.7852C89.2331 30.5052 88.8099 30.1309 88.5039 29.6621C88.1979 29.1868 88.0449 28.6497 88.0449 28.0508C88.0449 27.4909 88.1491 26.9961 88.3574 26.5664C88.5723 26.1302 88.8848 25.7656 89.2949 25.4727C89.7116 25.1797 90.2194 24.9583 90.8184 24.8086C91.4173 24.6523 92.1009 24.5742 92.8691 24.5742H94.7148ZM105.125 28.1387C105.125 27.9043 105.066 27.6927 104.949 27.5039C104.832 27.3086 104.607 27.1328 104.275 26.9766C103.95 26.8203 103.468 26.6771 102.83 26.5469C102.27 26.4232 101.756 26.2767 101.287 26.1074C100.825 25.9316 100.428 25.7201 100.096 25.4727C99.7637 25.2253 99.5065 24.9323 99.3242 24.5938C99.1419 24.2552 99.0508 23.8646 99.0508 23.4219C99.0508 22.9922 99.1452 22.5853 99.334 22.2012C99.5228 21.8171 99.793 21.4785 100.145 21.1855C100.496 20.8926 100.923 20.6615 101.424 20.4922C101.932 20.3229 102.498 20.2383 103.123 20.2383C104.008 20.2383 104.767 20.388 105.398 20.6875C106.036 20.9805 106.525 21.3809 106.863 21.8887C107.202 22.39 107.371 22.9564 107.371 23.5879H105.018C105.018 23.3079 104.946 23.0475 104.803 22.8066C104.666 22.5592 104.458 22.3607 104.178 22.2109C103.898 22.0547 103.546 21.9766 103.123 21.9766C102.719 21.9766 102.384 22.0417 102.117 22.1719C101.857 22.2956 101.661 22.4583 101.531 22.6602C101.408 22.862 101.346 23.0833 101.346 23.3242C101.346 23.5 101.378 23.6595 101.443 23.8027C101.515 23.9395 101.632 24.0664 101.795 24.1836C101.958 24.2943 102.179 24.3984 102.459 24.4961C102.745 24.5938 103.104 24.6882 103.533 24.7793C104.34 24.9486 105.034 25.1667 105.613 25.4336C106.199 25.694 106.648 26.0326 106.961 26.4492C107.273 26.8594 107.43 27.3802 107.43 28.0117C107.43 28.4805 107.329 28.9102 107.127 29.3008C106.932 29.6849 106.645 30.0202 106.268 30.3066C105.89 30.5866 105.438 30.8047 104.91 30.9609C104.389 31.1172 103.803 31.1953 103.152 31.1953C102.195 31.1953 101.385 31.026 100.721 30.6875C100.057 30.3424 99.5521 29.903 99.207 29.3691C98.8685 28.8288 98.6992 28.2689 98.6992 27.6895H100.975C101.001 28.1257 101.121 28.474 101.336 28.7344C101.557 28.9883 101.831 29.1738 102.156 29.291C102.488 29.4017 102.83 29.457 103.182 29.457C103.605 29.457 103.96 29.4017 104.246 29.291C104.533 29.1738 104.751 29.0176 104.9 28.8223C105.05 28.6204 105.125 28.3926 105.125 28.1387ZM115.418 28.1387C115.418 27.9043 115.359 27.6927 115.242 27.5039C115.125 27.3086 114.9 27.1328 114.568 26.9766C114.243 26.8203 113.761 26.6771 113.123 26.5469C112.563 26.4232 112.049 26.2767 111.58 26.1074C111.118 25.9316 110.721 25.7201 110.389 25.4727C110.057 25.2253 109.799 24.9323 109.617 24.5938C109.435 24.2552 109.344 23.8646 109.344 23.4219C109.344 22.9922 109.438 22.5853 109.627 22.2012C109.816 21.8171 110.086 21.4785 110.438 21.1855C110.789 20.8926 111.215 20.6615 111.717 20.4922C112.225 20.3229 112.791 20.2383 113.416 20.2383C114.301 20.2383 115.06 20.388 115.691 20.6875C116.329 20.9805 116.818 21.3809 117.156 21.8887C117.495 22.39 117.664 22.9564 117.664 23.5879H115.311C115.311 23.3079 115.239 23.0475 115.096 22.8066C114.959 22.5592 114.751 22.3607 114.471 22.2109C114.191 22.0547 113.839 21.9766 113.416 21.9766C113.012 21.9766 112.677 22.0417 112.41 22.1719C112.15 22.2956 111.954 22.4583 111.824 22.6602C111.701 22.862 111.639 23.0833 111.639 23.3242C111.639 23.5 111.671 23.6595 111.736 23.8027C111.808 23.9395 111.925 24.0664 112.088 24.1836C112.251 24.2943 112.472 24.3984 112.752 24.4961C113.038 24.5938 113.396 24.6882 113.826 24.7793C114.633 24.9486 115.327 25.1667 115.906 25.4336C116.492 25.694 116.941 26.0326 117.254 26.4492C117.566 26.8594 117.723 27.3802 117.723 28.0117C117.723 28.4805 117.622 28.9102 117.42 29.3008C117.225 29.6849 116.938 30.0202 116.561 30.3066C116.183 30.5866 115.73 30.8047 115.203 30.9609C114.682 31.1172 114.096 31.1953 113.445 31.1953C112.488 31.1953 111.678 31.026 111.014 30.6875C110.35 30.3424 109.845 29.903 109.5 29.3691C109.161 28.8288 108.992 28.2689 108.992 27.6895H111.268C111.294 28.1257 111.414 28.474 111.629 28.7344C111.85 28.9883 112.124 29.1738 112.449 29.291C112.781 29.4017 113.123 29.457 113.475 29.457C113.898 29.457 114.253 29.4017 114.539 29.291C114.826 29.1738 115.044 29.0176 115.193 28.8223C115.343 28.6204 115.418 28.3926 115.418 28.1387ZM119.334 25.834V25.6094C119.334 24.8477 119.445 24.1413 119.666 23.4902C119.887 22.8327 120.206 22.263 120.623 21.7812C121.046 21.293 121.561 20.9154 122.166 20.6484C122.778 20.375 123.468 20.2383 124.236 20.2383C125.011 20.2383 125.701 20.375 126.307 20.6484C126.919 20.9154 127.436 21.293 127.859 21.7812C128.283 22.263 128.605 22.8327 128.826 23.4902C129.048 24.1413 129.158 24.8477 129.158 25.6094V25.834C129.158 26.5957 129.048 27.3021 128.826 27.9531C128.605 28.6042 128.283 29.1738 127.859 29.6621C127.436 30.1439 126.922 30.5215 126.316 30.7949C125.711 31.0618 125.024 31.1953 124.256 31.1953C123.481 31.1953 122.788 31.0618 122.176 30.7949C121.57 30.5215 121.056 30.1439 120.633 29.6621C120.21 29.1738 119.887 28.6042 119.666 27.9531C119.445 27.3021 119.334 26.5957 119.334 25.834ZM121.688 25.6094V25.834C121.688 26.3092 121.736 26.7585 121.834 27.1816C121.932 27.6048 122.085 27.9759 122.293 28.2949C122.501 28.6139 122.768 28.8646 123.094 29.0469C123.419 29.2292 123.807 29.3203 124.256 29.3203C124.692 29.3203 125.07 29.2292 125.389 29.0469C125.714 28.8646 125.981 28.6139 126.189 28.2949C126.398 27.9759 126.551 27.6048 126.648 27.1816C126.753 26.7585 126.805 26.3092 126.805 25.834V25.6094C126.805 25.1406 126.753 24.6979 126.648 24.2812C126.551 23.8581 126.395 23.4837 126.18 23.1582C125.971 22.8327 125.704 22.5788 125.379 22.3965C125.06 22.2077 124.679 22.1133 124.236 22.1133C123.794 22.1133 123.41 22.2077 123.084 22.3965C122.765 22.5788 122.501 22.8327 122.293 23.1582C122.085 23.4837 121.932 23.8581 121.834 24.2812C121.736 24.6979 121.688 25.1406 121.688 25.6094ZM137.059 28.1387C137.059 27.9043 137 27.6927 136.883 27.5039C136.766 27.3086 136.541 27.1328 136.209 26.9766C135.883 26.8203 135.402 26.6771 134.764 26.5469C134.204 26.4232 133.689 26.2767 133.221 26.1074C132.758 25.9316 132.361 25.7201 132.029 25.4727C131.697 25.2253 131.44 24.9323 131.258 24.5938C131.076 24.2552 130.984 23.8646 130.984 23.4219C130.984 22.9922 131.079 22.5853 131.268 22.2012C131.456 21.8171 131.727 21.4785 132.078 21.1855C132.43 20.8926 132.856 20.6615 133.357 20.4922C133.865 20.3229 134.432 20.2383 135.057 20.2383C135.942 20.2383 136.701 20.388 137.332 20.6875C137.97 20.9805 138.458 21.3809 138.797 21.8887C139.135 22.39 139.305 22.9564 139.305 23.5879H136.951C136.951 23.3079 136.88 23.0475 136.736 22.8066C136.6 22.5592 136.391 22.3607 136.111 22.2109C135.831 22.0547 135.48 21.9766 135.057 21.9766C134.653 21.9766 134.318 22.0417 134.051 22.1719C133.79 22.2956 133.595 22.4583 133.465 22.6602C133.341 22.862 133.279 23.0833 133.279 23.3242C133.279 23.5 133.312 23.6595 133.377 23.8027C133.449 23.9395 133.566 24.0664 133.729 24.1836C133.891 24.2943 134.113 24.3984 134.393 24.4961C134.679 24.5938 135.037 24.6882 135.467 24.7793C136.274 24.9486 136.967 25.1667 137.547 25.4336C138.133 25.694 138.582 26.0326 138.895 26.4492C139.207 26.8594 139.363 27.3802 139.363 28.0117C139.363 28.4805 139.262 28.9102 139.061 29.3008C138.865 29.6849 138.579 30.0202 138.201 30.3066C137.824 30.5866 137.371 30.8047 136.844 30.9609C136.323 31.1172 135.737 31.1953 135.086 31.1953C134.129 31.1953 133.318 31.026 132.654 30.6875C131.99 30.3424 131.486 29.903 131.141 29.3691C130.802 28.8288 130.633 28.2689 130.633 27.6895H132.908C132.934 28.1257 133.055 28.474 133.27 28.7344C133.491 28.9883 133.764 29.1738 134.09 29.291C134.422 29.4017 134.764 29.457 135.115 29.457C135.538 29.457 135.893 29.4017 136.18 29.291C136.466 29.1738 136.684 29.0176 136.834 28.8223C136.984 28.6204 137.059 28.3926 137.059 28.1387ZM152.85 28.8125V16H155.213V31H153.074L152.85 28.8125ZM145.975 25.834V25.6289C145.975 24.8281 146.069 24.099 146.258 23.4414C146.447 22.7773 146.72 22.2077 147.078 21.7324C147.436 21.2507 147.872 20.8828 148.387 20.6289C148.901 20.3685 149.48 20.2383 150.125 20.2383C150.763 20.2383 151.323 20.362 151.805 20.6094C152.286 20.8568 152.697 21.2116 153.035 21.6738C153.374 22.1296 153.644 22.6764 153.846 23.3145C154.048 23.946 154.191 24.6491 154.275 25.4238V26.0781C154.191 26.8333 154.048 27.5234 153.846 28.1484C153.644 28.7734 153.374 29.3138 153.035 29.7695C152.697 30.2253 152.283 30.5768 151.795 30.8242C151.313 31.0716 150.75 31.1953 150.105 31.1953C149.467 31.1953 148.891 31.0618 148.377 30.7949C147.869 30.528 147.436 30.1536 147.078 29.6719C146.72 29.1901 146.447 28.6237 146.258 27.9727C146.069 27.3151 145.975 26.6022 145.975 25.834ZM148.328 25.6289V25.834C148.328 26.3158 148.37 26.765 148.455 27.1816C148.546 27.5983 148.686 27.9661 148.875 28.2852C149.064 28.5977 149.308 28.8451 149.607 29.0273C149.913 29.2031 150.278 29.291 150.701 29.291C151.235 29.291 151.674 29.1738 152.02 28.9395C152.365 28.7051 152.635 28.3893 152.83 27.9922C153.032 27.5885 153.169 27.1393 153.24 26.6445V24.877C153.201 24.4928 153.12 24.1348 152.996 23.8027C152.879 23.4707 152.719 23.181 152.518 22.9336C152.316 22.6797 152.065 22.4844 151.766 22.3477C151.473 22.2044 151.124 22.1328 150.721 22.1328C150.291 22.1328 149.926 22.224 149.627 22.4062C149.327 22.5885 149.08 22.8392 148.885 23.1582C148.696 23.4772 148.556 23.8483 148.465 24.2715C148.374 24.6947 148.328 25.1471 148.328 25.6289ZM162.332 31.1953C161.551 31.1953 160.844 31.0684 160.213 30.8145C159.588 30.554 159.054 30.1927 158.611 29.7305C158.175 29.2682 157.84 28.7246 157.605 28.0996C157.371 27.4746 157.254 26.8008 157.254 26.0781V25.6875C157.254 24.8607 157.374 24.112 157.615 23.4414C157.856 22.7708 158.191 22.1979 158.621 21.7227C159.051 21.2409 159.559 20.873 160.145 20.6191C160.73 20.3652 161.365 20.2383 162.049 20.2383C162.804 20.2383 163.465 20.3652 164.031 20.6191C164.598 20.873 165.066 21.2311 165.438 21.6934C165.815 22.1491 166.095 22.6927 166.277 23.3242C166.466 23.9557 166.561 24.6523 166.561 25.4141V26.4199H158.396V24.7305H164.236V24.5449C164.223 24.1217 164.139 23.7246 163.982 23.3535C163.833 22.9824 163.602 22.6829 163.289 22.4551C162.977 22.2272 162.56 22.1133 162.039 22.1133C161.648 22.1133 161.3 22.1979 160.994 22.3672C160.695 22.5299 160.444 22.7676 160.242 23.0801C160.04 23.3926 159.884 23.7702 159.773 24.2129C159.669 24.6491 159.617 25.1406 159.617 25.6875V26.0781C159.617 26.5404 159.679 26.9701 159.803 27.3672C159.933 27.7578 160.122 28.0996 160.369 28.3926C160.617 28.6855 160.916 28.9167 161.268 29.0859C161.619 29.2487 162.02 29.3301 162.469 29.3301C163.035 29.3301 163.54 29.2161 163.982 28.9883C164.425 28.7604 164.809 28.4382 165.135 28.0215L166.375 29.2227C166.147 29.5547 165.851 29.8737 165.486 30.1797C165.122 30.4792 164.676 30.7233 164.148 30.9121C163.628 31.1009 163.022 31.1953 162.332 31.1953ZM176.229 16.7812V31H173.777V16.7812H176.229ZM181.375 22.6895V31H179.021V20.4336H181.238L181.375 22.6895ZM180.955 25.3262L180.193 25.3164C180.2 24.5677 180.304 23.8809 180.506 23.2559C180.714 22.6309 181.001 22.0938 181.365 21.6445C181.736 21.1953 182.179 20.8503 182.693 20.6094C183.208 20.362 183.781 20.2383 184.412 20.2383C184.92 20.2383 185.379 20.3099 185.789 20.4531C186.206 20.5898 186.561 20.8145 186.854 21.127C187.153 21.4395 187.381 21.8464 187.537 22.3477C187.693 22.8424 187.771 23.4512 187.771 24.1738V31H185.408V24.1641C185.408 23.6562 185.333 23.2559 185.184 22.9629C185.04 22.6634 184.829 22.4518 184.549 22.3281C184.275 22.1979 183.934 22.1328 183.523 22.1328C183.12 22.1328 182.758 22.2174 182.439 22.3867C182.12 22.556 181.85 22.7871 181.629 23.0801C181.414 23.373 181.248 23.7116 181.131 24.0957C181.014 24.4798 180.955 24.89 180.955 25.3262ZM196.102 28.1387C196.102 27.9043 196.043 27.6927 195.926 27.5039C195.809 27.3086 195.584 27.1328 195.252 26.9766C194.926 26.8203 194.445 26.6771 193.807 26.5469C193.247 26.4232 192.732 26.2767 192.264 26.1074C191.801 25.9316 191.404 25.7201 191.072 25.4727C190.74 25.2253 190.483 24.9323 190.301 24.5938C190.118 24.2552 190.027 23.8646 190.027 23.4219C190.027 22.9922 190.122 22.5853 190.311 22.2012C190.499 21.8171 190.77 21.4785 191.121 21.1855C191.473 20.8926 191.899 20.6615 192.4 20.4922C192.908 20.3229 193.475 20.2383 194.1 20.2383C194.985 20.2383 195.743 20.388 196.375 20.6875C197.013 20.9805 197.501 21.3809 197.84 21.8887C198.178 22.39 198.348 22.9564 198.348 23.5879H195.994C195.994 23.3079 195.923 23.0475 195.779 22.8066C195.643 22.5592 195.434 22.3607 195.154 22.2109C194.874 22.0547 194.523 21.9766 194.1 21.9766C193.696 21.9766 193.361 22.0417 193.094 22.1719C192.833 22.2956 192.638 22.4583 192.508 22.6602C192.384 22.862 192.322 23.0833 192.322 23.3242C192.322 23.5 192.355 23.6595 192.42 23.8027C192.492 23.9395 192.609 24.0664 192.771 24.1836C192.934 24.2943 193.156 24.3984 193.436 24.4961C193.722 24.5938 194.08 24.6882 194.51 24.7793C195.317 24.9486 196.01 25.1667 196.59 25.4336C197.176 25.694 197.625 26.0326 197.938 26.4492C198.25 26.8594 198.406 27.3802 198.406 28.0117C198.406 28.4805 198.305 28.9102 198.104 29.3008C197.908 29.6849 197.622 30.0202 197.244 30.3066C196.867 30.5866 196.414 30.8047 195.887 30.9609C195.366 31.1172 194.78 31.1953 194.129 31.1953C193.172 31.1953 192.361 31.026 191.697 30.6875C191.033 30.3424 190.529 29.903 190.184 29.3691C189.845 28.8288 189.676 28.2689 189.676 27.6895H191.951C191.977 28.1257 192.098 28.474 192.312 28.7344C192.534 28.9883 192.807 29.1738 193.133 29.291C193.465 29.4017 193.807 29.457 194.158 29.457C194.581 29.457 194.936 29.4017 195.223 29.291C195.509 29.1738 195.727 29.0176 195.877 28.8223C196.027 28.6204 196.102 28.3926 196.102 28.1387ZM204.783 29.3203C205.167 29.3203 205.512 29.2454 205.818 29.0957C206.131 28.9395 206.382 28.7246 206.57 28.4512C206.766 28.1777 206.873 27.862 206.893 27.5039H209.109C209.096 28.1875 208.895 28.8092 208.504 29.3691C208.113 29.929 207.596 30.375 206.951 30.707C206.307 31.0326 205.594 31.1953 204.812 31.1953C204.005 31.1953 203.302 31.0586 202.703 30.7852C202.104 30.5052 201.606 30.1211 201.209 29.6328C200.812 29.1445 200.512 28.5814 200.311 27.9434C200.115 27.3053 200.018 26.6217 200.018 25.8926V25.5508C200.018 24.8216 200.115 24.138 200.311 23.5C200.512 22.8555 200.812 22.2891 201.209 21.8008C201.606 21.3125 202.104 20.9316 202.703 20.6582C203.302 20.3783 204.002 20.2383 204.803 20.2383C205.649 20.2383 206.391 20.4076 207.029 20.7461C207.667 21.0781 208.169 21.5436 208.533 22.1426C208.904 22.735 209.096 23.4251 209.109 24.2129H206.893C206.873 23.8223 206.775 23.4707 206.6 23.1582C206.43 22.8392 206.189 22.5853 205.877 22.3965C205.571 22.2077 205.203 22.1133 204.773 22.1133C204.298 22.1133 203.904 22.2109 203.592 22.4062C203.279 22.5951 203.035 22.8555 202.859 23.1875C202.684 23.513 202.557 23.8809 202.479 24.291C202.407 24.6947 202.371 25.1146 202.371 25.5508V25.8926C202.371 26.3288 202.407 26.752 202.479 27.1621C202.55 27.5723 202.674 27.9401 202.85 28.2656C203.032 28.5846 203.279 28.8418 203.592 29.0371C203.904 29.2259 204.301 29.3203 204.783 29.3203ZM213.279 22.4453V31H210.926V20.4336H213.172L213.279 22.4453ZM216.512 20.3652L216.492 22.5527C216.349 22.5267 216.193 22.5072 216.023 22.4941C215.861 22.4811 215.698 22.4746 215.535 22.4746C215.132 22.4746 214.777 22.5332 214.471 22.6504C214.165 22.7611 213.908 22.9238 213.699 23.1387C213.497 23.347 213.341 23.6009 213.23 23.9004C213.12 24.1999 213.055 24.5352 213.035 24.9062L212.498 24.9453C212.498 24.2812 212.563 23.666 212.693 23.0996C212.824 22.5332 213.019 22.0352 213.279 21.6055C213.546 21.1758 213.878 20.8405 214.275 20.5996C214.679 20.3587 215.145 20.2383 215.672 20.2383C215.815 20.2383 215.968 20.2513 216.131 20.2773C216.3 20.3034 216.427 20.3327 216.512 20.3652ZM220.506 20.4336V31H218.143V20.4336H220.506ZM217.986 17.6602C217.986 17.3021 218.104 17.0059 218.338 16.7715C218.579 16.5306 218.911 16.4102 219.334 16.4102C219.751 16.4102 220.079 16.5306 220.32 16.7715C220.561 17.0059 220.682 17.3021 220.682 17.6602C220.682 18.0117 220.561 18.3047 220.32 18.5391C220.079 18.7734 219.751 18.8906 219.334 18.8906C218.911 18.8906 218.579 18.7734 218.338 18.5391C218.104 18.3047 217.986 18.0117 217.986 17.6602ZM227.4 29.3203C227.785 29.3203 228.13 29.2454 228.436 29.0957C228.748 28.9395 228.999 28.7246 229.188 28.4512C229.383 28.1777 229.49 27.862 229.51 27.5039H231.727C231.714 28.1875 231.512 28.8092 231.121 29.3691C230.73 29.929 230.213 30.375 229.568 30.707C228.924 31.0326 228.211 31.1953 227.43 31.1953C226.622 31.1953 225.919 31.0586 225.32 30.7852C224.721 30.5052 224.223 30.1211 223.826 29.6328C223.429 29.1445 223.13 28.5814 222.928 27.9434C222.732 27.3053 222.635 26.6217 222.635 25.8926V25.5508C222.635 24.8216 222.732 24.138 222.928 23.5C223.13 22.8555 223.429 22.2891 223.826 21.8008C224.223 21.3125 224.721 20.9316 225.32 20.6582C225.919 20.3783 226.619 20.2383 227.42 20.2383C228.266 20.2383 229.008 20.4076 229.646 20.7461C230.285 21.0781 230.786 21.5436 231.15 22.1426C231.521 22.735 231.714 23.4251 231.727 24.2129H229.51C229.49 23.8223 229.393 23.4707 229.217 23.1582C229.048 22.8392 228.807 22.5853 228.494 22.3965C228.188 22.2077 227.82 22.1133 227.391 22.1133C226.915 22.1133 226.521 22.2109 226.209 22.4062C225.896 22.5951 225.652 22.8555 225.477 23.1875C225.301 23.513 225.174 23.8809 225.096 24.291C225.024 24.6947 224.988 25.1146 224.988 25.5508V25.8926C224.988 26.3288 225.024 26.752 225.096 27.1621C225.167 27.5723 225.291 27.9401 225.467 28.2656C225.649 28.5846 225.896 28.8418 226.209 29.0371C226.521 29.2259 226.919 29.3203 227.4 29.3203ZM226.365 31.0195H228.113L227.996 31.5664C228.367 31.6315 228.706 31.7878 229.012 32.0352C229.324 32.2891 229.48 32.696 229.48 33.2559C229.48 33.5879 229.412 33.8874 229.275 34.1543C229.139 34.4212 228.934 34.6491 228.66 34.8379C228.393 35.0332 228.058 35.1829 227.654 35.2871C227.257 35.3913 226.795 35.4434 226.268 35.4434L226.199 34.1152C226.453 34.1152 226.681 34.0827 226.883 34.0176C227.085 33.959 227.244 33.8646 227.361 33.7344C227.485 33.6042 227.547 33.4349 227.547 33.2266C227.547 33.0247 227.495 32.8685 227.391 32.7578C227.286 32.6471 227.124 32.5625 226.902 32.5039C226.688 32.4453 226.408 32.403 226.062 32.377L226.365 31.0195ZM239.49 28.8809V23.8418C239.49 23.4642 239.422 23.1387 239.285 22.8652C239.148 22.5918 238.94 22.3802 238.66 22.2305C238.387 22.0807 238.042 22.0059 237.625 22.0059C237.241 22.0059 236.909 22.071 236.629 22.2012C236.349 22.3314 236.131 22.5072 235.975 22.7285C235.818 22.9499 235.74 23.2005 235.74 23.4805H233.396C233.396 23.0638 233.497 22.6602 233.699 22.2695C233.901 21.8789 234.194 21.5306 234.578 21.2246C234.962 20.9186 235.421 20.6777 235.955 20.502C236.489 20.3262 237.088 20.2383 237.752 20.2383C238.546 20.2383 239.249 20.3717 239.861 20.6387C240.48 20.9056 240.965 21.3092 241.316 21.8496C241.674 22.3835 241.854 23.054 241.854 23.8613V28.5586C241.854 29.0404 241.886 29.4733 241.951 29.8574C242.023 30.235 242.124 30.5638 242.254 30.8438V31H239.842C239.731 30.7461 239.643 30.4238 239.578 30.0332C239.52 29.6361 239.49 29.252 239.49 28.8809ZM239.832 24.5742L239.852 26.0293H238.162C237.726 26.0293 237.342 26.0716 237.01 26.1562C236.678 26.2344 236.401 26.3516 236.18 26.5078C235.958 26.6641 235.792 26.8529 235.682 27.0742C235.571 27.2956 235.516 27.5462 235.516 27.8262C235.516 28.1061 235.581 28.3633 235.711 28.5977C235.841 28.8255 236.03 29.0046 236.277 29.1348C236.531 29.265 236.837 29.3301 237.195 29.3301C237.677 29.3301 238.097 29.2324 238.455 29.0371C238.82 28.8353 239.106 28.5911 239.314 28.3047C239.523 28.0117 239.633 27.735 239.646 27.4746L240.408 28.5195C240.33 28.7865 240.197 29.0729 240.008 29.3789C239.819 29.6849 239.572 29.9779 239.266 30.2578C238.966 30.5312 238.605 30.7559 238.182 30.9316C237.765 31.1074 237.283 31.1953 236.736 31.1953C236.046 31.1953 235.431 31.0586 234.891 30.7852C234.35 30.5052 233.927 30.1309 233.621 29.6621C233.315 29.1868 233.162 28.6497 233.162 28.0508C233.162 27.4909 233.266 26.9961 233.475 26.5664C233.689 26.1302 234.002 25.7656 234.412 25.4727C234.829 25.1797 235.337 24.9583 235.936 24.8086C236.535 24.6523 237.218 24.5742 237.986 24.5742H239.832ZM239.979 16.1172L241.414 16.2246C241.414 16.6999 241.32 17.1263 241.131 17.5039C240.942 17.875 240.685 18.168 240.359 18.3828C240.034 18.5977 239.666 18.7051 239.256 18.7051C238.937 18.7051 238.667 18.6595 238.445 18.5684C238.224 18.4772 238.022 18.373 237.84 18.2559C237.658 18.1387 237.469 18.0378 237.273 17.9531C237.085 17.862 236.86 17.8164 236.6 17.8164C236.352 17.8164 236.141 17.9076 235.965 18.0898C235.796 18.2721 235.711 18.5163 235.711 18.8223L234.266 18.7441C234.266 18.2754 234.36 17.8522 234.549 17.4746C234.738 17.097 234.995 16.7975 235.32 16.5762C235.646 16.3548 236.014 16.2441 236.424 16.2441C236.691 16.2441 236.932 16.2897 237.146 16.3809C237.368 16.4655 237.576 16.5664 237.771 16.6836C237.973 16.8008 238.178 16.9049 238.387 16.9961C238.595 17.0872 238.826 17.1328 239.08 17.1328C239.327 17.1328 239.539 17.0384 239.715 16.8496C239.891 16.6608 239.979 16.4167 239.979 16.1172ZM243.865 25.834V25.6094C243.865 24.8477 243.976 24.1413 244.197 23.4902C244.419 22.8327 244.738 22.263 245.154 21.7812C245.577 21.293 246.092 20.9154 246.697 20.6484C247.309 20.375 247.999 20.2383 248.768 20.2383C249.542 20.2383 250.232 20.375 250.838 20.6484C251.45 20.9154 251.967 21.293 252.391 21.7812C252.814 22.263 253.136 22.8327 253.357 23.4902C253.579 24.1413 253.689 24.8477 253.689 25.6094V25.834C253.689 26.5957 253.579 27.3021 253.357 27.9531C253.136 28.6042 252.814 29.1738 252.391 29.6621C251.967 30.1439 251.453 30.5215 250.848 30.7949C250.242 31.0618 249.555 31.1953 248.787 31.1953C248.012 31.1953 247.319 31.0618 246.707 30.7949C246.102 30.5215 245.587 30.1439 245.164 29.6621C244.741 29.1738 244.419 28.6042 244.197 27.9531C243.976 27.3021 243.865 26.5957 243.865 25.834ZM246.219 25.6094V25.834C246.219 26.3092 246.268 26.7585 246.365 27.1816C246.463 27.6048 246.616 27.9759 246.824 28.2949C247.033 28.6139 247.299 28.8646 247.625 29.0469C247.951 29.2292 248.338 29.3203 248.787 29.3203C249.223 29.3203 249.601 29.2292 249.92 29.0469C250.245 28.8646 250.512 28.6139 250.721 28.2949C250.929 27.9759 251.082 27.6048 251.18 27.1816C251.284 26.7585 251.336 26.3092 251.336 25.834V25.6094C251.336 25.1406 251.284 24.6979 251.18 24.2812C251.082 23.8581 250.926 23.4837 250.711 23.1582C250.503 22.8327 250.236 22.5788 249.91 22.3965C249.591 22.2077 249.21 22.1133 248.768 22.1133C248.325 22.1133 247.941 22.2077 247.615 22.3965C247.296 22.5788 247.033 22.8327 246.824 23.1582C246.616 23.4837 246.463 23.8581 246.365 24.2812C246.268 24.6979 246.219 25.1406 246.219 25.6094Z" fill="#FEFEFE"/>
</svg>
