<svg class="menor" width="292" height="48" viewBox="0 0 292 48" fill="none" xmlns="http://www.w3.org/2000/svg">
<rect width="292" height="48" rx="18" fill="currentColor"/>
<path d="M81 27.5V15.5M81 27.5L77 23.5M81 27.5L85 23.5M71 29.5L71.621 31.985C71.7292 32.4177 71.9788 32.8018 72.3303 33.0763C72.6818 33.3508 73.115 33.4999 73.561 33.5H88.438C88.884 33.4999 89.3172 33.3508 89.6687 33.0763C90.0202 32.8018 90.2698 32.4177 90.378 31.985L91 29.5" stroke="#FEFEFE" stroke-width="2" stroke-linecap="round" stroke-linejoin="round"/>
<path d="M106.58 16.7812H111.609C112.69 16.7812 113.611 16.944 114.373 17.2695C115.135 17.5951 115.717 18.0768 116.121 18.7148C116.531 19.3464 116.736 20.1276 116.736 21.0586C116.736 21.7682 116.606 22.3932 116.346 22.9336C116.085 23.474 115.717 23.9297 115.242 24.3008C114.767 24.6654 114.201 24.9486 113.543 25.1504L112.801 25.5117H108.279L108.26 23.5684H111.648C112.234 23.5684 112.723 23.4642 113.113 23.2559C113.504 23.0475 113.797 22.7643 113.992 22.4062C114.194 22.0417 114.295 21.6315 114.295 21.1758C114.295 20.681 114.197 20.2513 114.002 19.8867C113.813 19.5156 113.52 19.2324 113.123 19.0371C112.726 18.8353 112.221 18.7344 111.609 18.7344H109.031V31H106.58V16.7812ZM114.695 31L111.355 24.6133L113.924 24.6035L117.312 30.873V31H114.695ZM123.602 31.1953C122.82 31.1953 122.114 31.0684 121.482 30.8145C120.857 30.554 120.324 30.1927 119.881 29.7305C119.445 29.2682 119.109 28.7246 118.875 28.0996C118.641 27.4746 118.523 26.8008 118.523 26.0781V25.6875C118.523 24.8607 118.644 24.112 118.885 23.4414C119.126 22.7708 119.461 22.1979 119.891 21.7227C120.32 21.2409 120.828 20.873 121.414 20.6191C122 20.3652 122.635 20.2383 123.318 20.2383C124.074 20.2383 124.734 20.3652 125.301 20.6191C125.867 20.873 126.336 21.2311 126.707 21.6934C127.085 22.1491 127.365 22.6927 127.547 23.3242C127.736 23.9557 127.83 24.6523 127.83 25.4141V26.4199H119.666V24.7305H125.506V24.5449C125.493 24.1217 125.408 23.7246 125.252 23.3535C125.102 22.9824 124.871 22.6829 124.559 22.4551C124.246 22.2272 123.829 22.1133 123.309 22.1133C122.918 22.1133 122.57 22.1979 122.264 22.3672C121.964 22.5299 121.714 22.7676 121.512 23.0801C121.31 23.3926 121.154 23.7702 121.043 24.2129C120.939 24.6491 120.887 25.1406 120.887 25.6875V26.0781C120.887 26.5404 120.949 26.9701 121.072 27.3672C121.202 27.7578 121.391 28.0996 121.639 28.3926C121.886 28.6855 122.186 28.9167 122.537 29.0859C122.889 29.2487 123.289 29.3301 123.738 29.3301C124.305 29.3301 124.809 29.2161 125.252 28.9883C125.695 28.7604 126.079 28.4382 126.404 28.0215L127.645 29.2227C127.417 29.5547 127.12 29.8737 126.756 30.1797C126.391 30.4792 125.945 30.7233 125.418 30.9121C124.897 31.1009 124.292 31.1953 123.602 31.1953ZM136.434 20.4336H138.572V30.707C138.572 31.6576 138.37 32.4648 137.967 33.1289C137.563 33.793 137 34.2975 136.277 34.6426C135.555 34.9941 134.718 35.1699 133.768 35.1699C133.364 35.1699 132.915 35.1113 132.42 34.9941C131.932 34.877 131.456 34.6882 130.994 34.4277C130.538 34.1738 130.158 33.8385 129.852 33.4219L130.955 32.0352C131.333 32.4844 131.749 32.8132 132.205 33.0215C132.661 33.2298 133.139 33.334 133.641 33.334C134.181 33.334 134.64 33.2331 135.018 33.0312C135.402 32.8359 135.698 32.5462 135.906 32.1621C136.115 31.778 136.219 31.3092 136.219 30.7559V22.8262L136.434 20.4336ZM129.256 25.834V25.6289C129.256 24.8281 129.354 24.099 129.549 23.4414C129.744 22.7773 130.024 22.2077 130.389 21.7324C130.753 21.2507 131.196 20.8828 131.717 20.6289C132.238 20.3685 132.827 20.2383 133.484 20.2383C134.168 20.2383 134.751 20.362 135.232 20.6094C135.721 20.8568 136.128 21.2116 136.453 21.6738C136.779 22.1296 137.033 22.6764 137.215 23.3145C137.404 23.946 137.544 24.6491 137.635 25.4238V26.0781C137.55 26.8333 137.407 27.5234 137.205 28.1484C137.003 28.7734 136.736 29.3138 136.404 29.7695C136.072 30.2253 135.662 30.5768 135.174 30.8242C134.692 31.0716 134.122 31.1953 133.465 31.1953C132.82 31.1953 132.238 31.0618 131.717 30.7949C131.202 30.528 130.76 30.1536 130.389 29.6719C130.024 29.1901 129.744 28.6237 129.549 27.9727C129.354 27.3151 129.256 26.6022 129.256 25.834ZM131.609 25.6289V25.834C131.609 26.3158 131.655 26.765 131.746 27.1816C131.844 27.5983 131.99 27.9661 132.186 28.2852C132.387 28.5977 132.641 28.8451 132.947 29.0273C133.26 29.2031 133.628 29.291 134.051 29.291C134.604 29.291 135.057 29.1738 135.408 28.9395C135.766 28.7051 136.04 28.3893 136.229 27.9922C136.424 27.5885 136.561 27.1393 136.639 26.6445V24.877C136.6 24.4928 136.518 24.1348 136.395 23.8027C136.277 23.4707 136.118 23.181 135.916 22.9336C135.714 22.6797 135.46 22.4844 135.154 22.3477C134.848 22.2044 134.487 22.1328 134.07 22.1328C133.647 22.1328 133.279 22.224 132.967 22.4062C132.654 22.5885 132.397 22.8392 132.195 23.1582C132 23.4772 131.854 23.8483 131.756 24.2715C131.658 24.6947 131.609 25.1471 131.609 25.6289ZM147.371 28.5098V20.4336H149.734V31H147.508L147.371 28.5098ZM147.703 26.3125L148.494 26.293C148.494 27.0026 148.416 27.6569 148.26 28.2559C148.104 28.8483 147.863 29.3659 147.537 29.8086C147.212 30.2448 146.795 30.5866 146.287 30.834C145.779 31.0749 145.171 31.1953 144.461 31.1953C143.947 31.1953 143.475 31.1204 143.045 30.9707C142.615 30.821 142.244 30.5898 141.932 30.2773C141.626 29.9648 141.388 29.5579 141.219 29.0566C141.049 28.5553 140.965 27.9564 140.965 27.2598V20.4336H143.318V27.2793C143.318 27.6634 143.364 27.9857 143.455 28.2461C143.546 28.5 143.67 28.7051 143.826 28.8613C143.982 29.0176 144.165 29.1283 144.373 29.1934C144.581 29.2585 144.803 29.291 145.037 29.291C145.708 29.291 146.235 29.1608 146.619 28.9004C147.01 28.6335 147.286 28.2754 147.449 27.8262C147.618 27.377 147.703 26.8724 147.703 26.3125ZM154.666 16V31H152.303V16H154.666ZM163.201 28.8809V23.8418C163.201 23.4642 163.133 23.1387 162.996 22.8652C162.859 22.5918 162.651 22.3802 162.371 22.2305C162.098 22.0807 161.753 22.0059 161.336 22.0059C160.952 22.0059 160.62 22.071 160.34 22.2012C160.06 22.3314 159.842 22.5072 159.686 22.7285C159.529 22.9499 159.451 23.2005 159.451 23.4805H157.107C157.107 23.0638 157.208 22.6602 157.41 22.2695C157.612 21.8789 157.905 21.5306 158.289 21.2246C158.673 20.9186 159.132 20.6777 159.666 20.502C160.2 20.3262 160.799 20.2383 161.463 20.2383C162.257 20.2383 162.96 20.3717 163.572 20.6387C164.191 20.9056 164.676 21.3092 165.027 21.8496C165.385 22.3835 165.564 23.054 165.564 23.8613V28.5586C165.564 29.0404 165.597 29.4733 165.662 29.8574C165.734 30.235 165.835 30.5638 165.965 30.8438V31H163.553C163.442 30.7461 163.354 30.4238 163.289 30.0332C163.23 29.6361 163.201 29.252 163.201 28.8809ZM163.543 24.5742L163.562 26.0293H161.873C161.437 26.0293 161.053 26.0716 160.721 26.1562C160.389 26.2344 160.112 26.3516 159.891 26.5078C159.669 26.6641 159.503 26.8529 159.393 27.0742C159.282 27.2956 159.227 27.5462 159.227 27.8262C159.227 28.1061 159.292 28.3633 159.422 28.5977C159.552 28.8255 159.741 29.0046 159.988 29.1348C160.242 29.265 160.548 29.3301 160.906 29.3301C161.388 29.3301 161.808 29.2324 162.166 29.0371C162.531 28.8353 162.817 28.5911 163.025 28.3047C163.234 28.0117 163.344 27.735 163.357 27.4746L164.119 28.5195C164.041 28.7865 163.908 29.0729 163.719 29.3789C163.53 29.6849 163.283 29.9779 162.977 30.2578C162.677 30.5312 162.316 30.7559 161.893 30.9316C161.476 31.1074 160.994 31.1953 160.447 31.1953C159.757 31.1953 159.142 31.0586 158.602 30.7852C158.061 30.5052 157.638 30.1309 157.332 29.6621C157.026 29.1868 156.873 28.6497 156.873 28.0508C156.873 27.4909 156.977 26.9961 157.186 26.5664C157.4 26.1302 157.713 25.7656 158.123 25.4727C158.54 25.1797 159.048 24.9583 159.646 24.8086C160.245 24.6523 160.929 24.5742 161.697 24.5742H163.543ZM170.379 22.582V31H168.025V20.4336H170.242L170.379 22.582ZM169.998 25.3262L169.197 25.3164C169.197 24.5872 169.288 23.9134 169.471 23.2949C169.653 22.6764 169.92 22.1393 170.271 21.6836C170.623 21.2214 171.059 20.8665 171.58 20.6191C172.107 20.3652 172.716 20.2383 173.406 20.2383C173.888 20.2383 174.327 20.3099 174.725 20.4531C175.128 20.5898 175.477 20.8079 175.77 21.1074C176.069 21.4069 176.297 21.791 176.453 22.2598C176.616 22.7285 176.697 23.2949 176.697 23.959V31H174.344V24.1641C174.344 23.6497 174.266 23.2461 174.109 22.9531C173.96 22.6602 173.742 22.4518 173.455 22.3281C173.175 22.1979 172.84 22.1328 172.449 22.1328C172.007 22.1328 171.629 22.2174 171.316 22.3867C171.01 22.556 170.76 22.7871 170.564 23.0801C170.369 23.373 170.226 23.7116 170.135 24.0957C170.044 24.4798 169.998 24.89 169.998 25.3262ZM176.551 24.7012L175.447 24.9453C175.447 24.3073 175.535 23.7051 175.711 23.1387C175.893 22.5658 176.157 22.0645 176.502 21.6348C176.854 21.1986 177.286 20.8568 177.801 20.6094C178.315 20.362 178.904 20.2383 179.568 20.2383C180.109 20.2383 180.59 20.3132 181.014 20.4629C181.443 20.6061 181.808 20.834 182.107 21.1465C182.407 21.459 182.635 21.8659 182.791 22.3672C182.947 22.862 183.025 23.4609 183.025 24.1641V31H180.662V24.1543C180.662 23.6204 180.584 23.207 180.428 22.9141C180.278 22.6211 180.063 22.4193 179.783 22.3086C179.503 22.1914 179.168 22.1328 178.777 22.1328C178.413 22.1328 178.09 22.2012 177.811 22.3379C177.537 22.4681 177.306 22.6536 177.117 22.8945C176.928 23.1289 176.785 23.3991 176.688 23.7051C176.596 24.0111 176.551 24.3431 176.551 24.7012ZM190.105 31.1953C189.324 31.1953 188.618 31.0684 187.986 30.8145C187.361 30.554 186.827 30.1927 186.385 29.7305C185.949 29.2682 185.613 28.7246 185.379 28.0996C185.145 27.4746 185.027 26.8008 185.027 26.0781V25.6875C185.027 24.8607 185.148 24.112 185.389 23.4414C185.63 22.7708 185.965 22.1979 186.395 21.7227C186.824 21.2409 187.332 20.873 187.918 20.6191C188.504 20.3652 189.139 20.2383 189.822 20.2383C190.577 20.2383 191.238 20.3652 191.805 20.6191C192.371 20.873 192.84 21.2311 193.211 21.6934C193.589 22.1491 193.868 22.6927 194.051 23.3242C194.24 23.9557 194.334 24.6523 194.334 25.4141V26.4199H186.17V24.7305H192.01V24.5449C191.997 24.1217 191.912 23.7246 191.756 23.3535C191.606 22.9824 191.375 22.6829 191.062 22.4551C190.75 22.2272 190.333 22.1133 189.812 22.1133C189.422 22.1133 189.074 22.1979 188.768 22.3672C188.468 22.5299 188.217 22.7676 188.016 23.0801C187.814 23.3926 187.658 23.7702 187.547 24.2129C187.443 24.6491 187.391 25.1406 187.391 25.6875V26.0781C187.391 26.5404 187.452 26.9701 187.576 27.3672C187.706 27.7578 187.895 28.0996 188.143 28.3926C188.39 28.6855 188.689 28.9167 189.041 29.0859C189.393 29.2487 189.793 29.3301 190.242 29.3301C190.809 29.3301 191.313 29.2161 191.756 28.9883C192.199 28.7604 192.583 28.4382 192.908 28.0215L194.148 29.2227C193.921 29.5547 193.624 29.8737 193.26 30.1797C192.895 30.4792 192.449 30.7233 191.922 30.9121C191.401 31.1009 190.796 31.1953 190.105 31.1953ZM198.504 22.6895V31H196.15V20.4336H198.367L198.504 22.6895ZM198.084 25.3262L197.322 25.3164C197.329 24.5677 197.433 23.8809 197.635 23.2559C197.843 22.6309 198.13 22.0938 198.494 21.6445C198.865 21.1953 199.308 20.8503 199.822 20.6094C200.337 20.362 200.91 20.2383 201.541 20.2383C202.049 20.2383 202.508 20.3099 202.918 20.4531C203.335 20.5898 203.689 20.8145 203.982 21.127C204.282 21.4395 204.51 21.8464 204.666 22.3477C204.822 22.8424 204.9 23.4512 204.9 24.1738V31H202.537V24.1641C202.537 23.6562 202.462 23.2559 202.312 22.9629C202.169 22.6634 201.958 22.4518 201.678 22.3281C201.404 22.1979 201.062 22.1328 200.652 22.1328C200.249 22.1328 199.887 22.2174 199.568 22.3867C199.249 22.556 198.979 22.7871 198.758 23.0801C198.543 23.373 198.377 23.7116 198.26 24.0957C198.143 24.4798 198.084 24.89 198.084 25.3262ZM212.146 20.4336V22.1523H206.189V20.4336H212.146ZM207.908 17.8457H210.262V28.0801C210.262 28.4056 210.307 28.6562 210.398 28.832C210.496 29.0013 210.63 29.1152 210.799 29.1738C210.968 29.2324 211.167 29.2617 211.395 29.2617C211.557 29.2617 211.714 29.252 211.863 29.2324C212.013 29.2129 212.133 29.1934 212.225 29.1738L212.234 30.9707C212.039 31.0293 211.811 31.0814 211.551 31.127C211.297 31.1725 211.004 31.1953 210.672 31.1953C210.132 31.1953 209.653 31.1009 209.236 30.9121C208.82 30.7168 208.494 30.401 208.26 29.9648C208.025 29.5286 207.908 28.9492 207.908 28.2266V17.8457ZM213.279 25.834V25.6094C213.279 24.8477 213.39 24.1413 213.611 23.4902C213.833 22.8327 214.152 22.263 214.568 21.7812C214.992 21.293 215.506 20.9154 216.111 20.6484C216.723 20.375 217.413 20.2383 218.182 20.2383C218.956 20.2383 219.646 20.375 220.252 20.6484C220.864 20.9154 221.382 21.293 221.805 21.7812C222.228 22.263 222.55 22.8327 222.771 23.4902C222.993 24.1413 223.104 24.8477 223.104 25.6094V25.834C223.104 26.5957 222.993 27.3021 222.771 27.9531C222.55 28.6042 222.228 29.1738 221.805 29.6621C221.382 30.1439 220.867 30.5215 220.262 30.7949C219.656 31.0618 218.969 31.1953 218.201 31.1953C217.426 31.1953 216.733 31.0618 216.121 30.7949C215.516 30.5215 215.001 30.1439 214.578 29.6621C214.155 29.1738 213.833 28.6042 213.611 27.9531C213.39 27.3021 213.279 26.5957 213.279 25.834ZM215.633 25.6094V25.834C215.633 26.3092 215.682 26.7585 215.779 27.1816C215.877 27.6048 216.03 27.9759 216.238 28.2949C216.447 28.6139 216.714 28.8646 217.039 29.0469C217.365 29.2292 217.752 29.3203 218.201 29.3203C218.637 29.3203 219.015 29.2292 219.334 29.0469C219.66 28.8646 219.926 28.6139 220.135 28.2949C220.343 27.9759 220.496 27.6048 220.594 27.1816C220.698 26.7585 220.75 26.3092 220.75 25.834V25.6094C220.75 25.1406 220.698 24.6979 220.594 24.2812C220.496 23.8581 220.34 23.4837 220.125 23.1582C219.917 22.8327 219.65 22.5788 219.324 22.3965C219.005 22.2077 218.624 22.1133 218.182 22.1133C217.739 22.1133 217.355 22.2077 217.029 22.3965C216.71 22.5788 216.447 22.8327 216.238 23.1582C216.03 23.4837 215.877 23.8581 215.779 24.2812C215.682 24.6979 215.633 25.1406 215.633 25.6094Z" fill="#FEFEFE"/>
</svg>
